<svg width="24" height="25" viewBox="0 0 24 25" fill="none" xmlns="http://www.w3.org/2000/svg">
<g id="Alert Triangle" clip-path="url(#clip0_2863_61679)">
<path id="Vector" d="M22.553 22.7638C22.6187 22.8552 22.6559 22.9639 22.6598 23.0763C22.6637 23.1888 22.6342 23.2998 22.575 23.3955C22.5159 23.4912 22.4296 23.5672 22.3273 23.6139C22.2249 23.6606 22.111 23.6759 22 23.6578H1.99999C1.88895 23.6759 1.77505 23.6606 1.67269 23.6139C1.57034 23.5672 1.48412 23.4912 1.42494 23.3955C1.36576 23.2998 1.33626 23.1888 1.34019 23.0763C1.34412 22.9639 1.38128 22.8552 1.44699 22.7638L11.553 2.55284C11.799 2.06084 12.201 2.06084 12.447 2.55284L22.553 22.7638Z" fill="white" stroke="#333333" stroke-linecap="round" stroke-linejoin="round"/>
<path id="Vector_2" d="M12 17.1604V10.1604" stroke="#333333" stroke-linecap="round" stroke-linejoin="round"/>
<path id="Vector_3" d="M11.9912 19.1604C11.9585 19.161 11.9263 19.1682 11.8964 19.1814C11.8666 19.1946 11.8396 19.2136 11.8172 19.2374C11.7948 19.2611 11.7773 19.2891 11.7658 19.3196C11.7543 19.3502 11.749 19.3828 11.7502 19.4154C11.7527 19.4811 11.7806 19.5433 11.8279 19.5889C11.8753 19.6346 11.9384 19.6602 12.0042 19.6604H12.0092C12.0418 19.6598 12.074 19.6526 12.1039 19.6394C12.1338 19.6262 12.1607 19.6072 12.1831 19.5834C12.2056 19.5597 12.223 19.5317 12.2345 19.5012C12.2461 19.4706 12.2514 19.438 12.2502 19.4054C12.2476 19.3404 12.2203 19.2788 12.1738 19.2332C12.1274 19.1877 12.0652 19.1616 12.0002 19.1604H11.9952" stroke="#333333" stroke-linecap="round" stroke-linejoin="round"/>
</g>
<defs>
<clipPath id="clip0_2863_61679">
<rect width="24" height="24" fill="white" transform="translate(0 0.181885)"/>
</clipPath>
</defs>
</svg>
