<svg width="38" height="38" viewBox="0 0 38 38" fill="none" xmlns="http://www.w3.org/2000/svg">
<g clip-path="url(#clip0_3029_27357)">
<rect width="38" height="38" rx="8" fill="white"/>
<path fill-rule="evenodd" clip-rule="evenodd" d="M20.0774 13.4107C20.4028 13.0853 20.9305 13.0853 21.2559 13.4107L26.2559 18.4107C26.5814 18.7361 26.5814 19.2638 26.2559 19.5892L21.2559 24.5892C20.9305 24.9147 20.4028 24.9147 20.0774 24.5892C19.752 24.2638 19.752 23.7361 20.0774 23.4107L23.6548 19.8333H12.3333C11.8731 19.8333 11.5 19.4602 11.5 19C11.5 18.5397 11.8731 18.1666 12.3333 18.1666H23.6548L20.0774 14.5892C19.752 14.2638 19.752 13.7361 20.0774 13.4107Z" fill="#007AC9"/>
</g>
<defs>
<clipPath id="clip0_3029_27357">
<rect width="38" height="38" rx="8" fill="white"/>
</clipPath>
</defs>
</svg>
