<svg width="48" height="48" viewBox="0 0 48 48" fill="none" xmlns="http://www.w3.org/2000/svg">
<rect width="48" height="48" rx="24" fill="#D2E5E0"/>
<g clip-path="url(#clip0_2864_79525)">
<path d="M18 25.2212L20.45 28.6982C20.5429 28.837 20.6677 28.9516 20.8138 29.0325C20.96 29.1134 21.1234 29.1582 21.2904 29.1631C21.4573 29.1681 21.6231 29.1332 21.7738 29.0612C21.9246 28.9892 22.0559 28.8822 22.157 28.7492L30 18.8262" stroke="#333333" stroke-width="1.25781" stroke-linecap="round" stroke-linejoin="round"/>
<path d="M24 35.25C30.2132 35.25 35.25 30.2132 35.25 24C35.25 17.7868 30.2132 12.75 24 12.75C17.7868 12.75 12.75 17.7868 12.75 24C12.75 30.2132 17.7868 35.25 24 35.25Z" stroke="#333333" stroke-width="1.25781" stroke-linecap="round" stroke-linejoin="round"/>
</g>
<defs>
<clipPath id="clip0_2864_79525">
<rect width="24" height="24" fill="white" transform="translate(12 12)"/>
</clipPath>
</defs>
</svg>
