<svg width="16" height="17" viewBox="0 0 16 17" fill="none" xmlns="http://www.w3.org/2000/svg">
<g id="briefcase-01">
<path id="Icon (Stroke)" fill-rule="evenodd" clip-rule="evenodd" d="M7.9083 1.51541C7.93843 1.51543 7.969 1.51545 8.00002 1.51545C8.03105 1.51545 8.06161 1.51543 8.09174 1.51541C8.622 1.51513 9.01577 1.51491 9.35687 1.60631C10.2771 1.85289 10.9959 2.57168 11.2425 3.49193C11.2974 3.69691 11.3193 3.9209 11.3279 4.18211L12.5591 4.18211C12.9105 4.1821 13.2137 4.18209 13.4634 4.20249C13.7269 4.22403 13.9891 4.27157 14.2413 4.4001C14.6177 4.59185 14.9236 4.89781 15.1154 5.27413C15.2439 5.52638 15.2914 5.78853 15.313 6.05209C15.3334 6.3018 15.3334 6.60497 15.3334 6.9564V12.0745C15.3334 12.4259 15.3334 12.7291 15.313 12.9788C15.2914 13.2424 15.2439 13.5045 15.1154 13.7568C14.9236 14.1331 14.6177 14.439 14.2413 14.6308C13.9891 14.7593 13.7269 14.8069 13.4634 14.8284C13.2137 14.8488 12.9105 14.8488 12.5591 14.8488H3.44098C3.08955 14.8488 2.78638 14.8488 2.53667 14.8284C2.27311 14.8069 2.01096 14.7593 1.75871 14.6308C1.38238 14.439 1.07642 14.1331 0.884675 13.7568C0.756146 13.5045 0.708602 13.2424 0.687068 12.9788C0.666665 12.7291 0.666676 12.4259 0.666688 12.0745V6.95642C0.666676 6.60498 0.666665 6.30181 0.687068 6.05209C0.708602 5.78853 0.756146 5.52638 0.884675 5.27413C1.07642 4.89781 1.38238 4.59185 1.75871 4.4001C2.01096 4.27157 2.27311 4.22403 2.53667 4.20249C2.78638 4.18209 3.08956 4.1821 3.44099 4.18211L4.67216 4.18211C4.68079 3.9209 4.70263 3.69691 4.75755 3.49193C5.00413 2.57168 5.72293 1.85289 6.64317 1.60631C6.98427 1.51491 7.37805 1.51513 7.9083 1.51541ZM3.46669 5.51545C3.08232 5.51545 2.83414 5.51596 2.64525 5.5314C2.46414 5.54619 2.39699 5.57131 2.36403 5.58811C2.23859 5.65202 2.1366 5.75401 2.07268 5.87945C2.05589 5.91241 2.03077 5.97956 2.01597 6.16067C2.00054 6.34956 2.00002 6.59774 2.00002 6.98211V12.0488C2.00002 12.4331 2.00054 12.6813 2.01597 12.8702C2.03077 13.0513 2.05589 13.1185 2.07268 13.1514C2.1366 13.2769 2.23859 13.3789 2.36403 13.4428C2.39699 13.4596 2.46414 13.4847 2.64525 13.4995C2.83414 13.5149 3.08232 13.5154 3.46669 13.5154H12.5334C12.9177 13.5154 13.1659 13.5149 13.3548 13.4995C13.5359 13.4847 13.6031 13.4596 13.636 13.4428C13.7615 13.3789 13.8634 13.2769 13.9274 13.1514C13.9442 13.1185 13.9693 13.0513 13.9841 12.8702C13.9995 12.6813 14 12.4331 14 12.0488V6.98211C14 6.59774 13.9995 6.34956 13.9841 6.16067C13.9693 5.97956 13.9442 5.91241 13.9274 5.87945C13.8634 5.75401 13.7615 5.65202 13.636 5.58811C13.6031 5.57131 13.5359 5.54619 13.3548 5.5314C13.1659 5.51596 12.9177 5.51545 12.5334 5.51545H3.46669ZM9.99345 4.18211H6.0066C6.01272 4.0104 6.02423 3.91621 6.04545 3.83702C6.16874 3.3769 6.52814 3.0175 6.98826 2.89421C7.13645 2.8545 7.33712 2.84878 8.00002 2.84878C8.66292 2.84878 8.8636 2.8545 9.01178 2.89421C9.4719 3.0175 9.8313 3.3769 9.95459 3.83702C9.97581 3.91621 9.98732 4.0104 9.99345 4.18211Z" fill="#203950"/>
</g>
</svg>
