<svg width="28" height="33" viewBox="0 0 28 33" fill="none" xmlns="http://www.w3.org/2000/svg">
<path d="M13.5385 27.919C21.0155 27.919 27.0769 21.8576 27.0769 14.3805C27.0769 6.90342 21.0155 0.842041 13.5385 0.842041C6.06138 0.842041 0 6.90342 0 14.3805C0 21.8576 6.06138 27.919 13.5385 27.919Z" fill="#E5F2FA"/>
<g clip-path="url(#clip0_2749_20350)">
<path d="M9.15479 15.7653V29.6114H22.5394C22.6618 29.6114 22.7792 29.5628 22.8658 29.4763C22.9523 29.3897 23.0009 29.2723 23.0009 29.1499V14.6114L20.3702 11.3234C20.327 11.2694 20.2722 11.2257 20.2099 11.1957C20.1476 11.1656 20.0793 11.15 20.0102 11.1499L9.15479 15.7653Z" fill="#EDF7E1"/>
<path d="M17.4625 12.2327L9.15479 15.7653V29.6114H17.4625V12.2327Z" fill="#D2ECB3"/>
<path d="M12.1452 11.1494C12.076 11.1495 12.0078 11.1652 11.9454 11.1952C11.8831 11.2252 11.8284 11.2689 11.7852 11.323L8.83135 15.0153C8.77716 15.0831 8.74321 15.1649 8.73341 15.2512C8.72362 15.3375 8.73837 15.4248 8.77597 15.5031C8.81357 15.5814 8.87249 15.6475 8.94597 15.6938C9.01945 15.74 9.1045 15.7647 9.19135 15.7648H16.3175C16.3867 15.7647 16.4549 15.7491 16.5173 15.719C16.5796 15.689 16.6343 15.6453 16.6775 15.5913L20.1935 11.1882C20.1356 11.1628 20.0731 11.1496 20.0098 11.1494H12.1452Z" fill="#D2ECB3"/>
<path d="M19.2623 12.3605L20.1937 11.1882C20.1357 11.1628 20.0732 11.1496 20.01 11.1494H12.1454C12.0762 11.1495 12.0079 11.1652 11.9456 11.1952C11.8833 11.2252 11.8285 11.2689 11.7854 11.323L10.9546 12.3605H19.2623Z" fill="#EDF7E1"/>
<path d="M3.6167 27.4582V31.9194C3.6167 32.0419 3.66533 32.1592 3.75188 32.2458C3.83844 32.3324 3.95583 32.381 4.07824 32.381H13.309C13.4314 32.381 13.5488 32.3324 13.6354 32.2458C13.7219 32.1592 13.7705 32.0419 13.7705 31.9194V27.4582L11.9244 24.9253L3.6167 27.4582Z" fill="#D2ECB3"/>
<path d="M11.923 24.9958H5.69227C5.62062 24.9958 5.54995 25.0125 5.48586 25.0446C5.42178 25.0766 5.36603 25.1231 5.32304 25.1805L3.24612 27.9497C3.19469 28.0183 3.16337 28.0998 3.15567 28.1852C3.14798 28.2705 3.1642 28.3564 3.20253 28.433C3.24087 28.5097 3.29979 28.5742 3.3727 28.6192C3.44561 28.6643 3.52963 28.6882 3.61535 28.6882H8.92304C8.99469 28.6882 9.06536 28.6715 9.12945 28.6394C9.19353 28.6074 9.24928 28.5609 9.29227 28.5035L11.923 24.9958Z" fill="#D2ECB3"/>
<path d="M10.8361 26.4469L11.9244 24.9958H5.69359C5.62194 24.9958 5.55127 25.0125 5.48718 25.0446C5.4231 25.0766 5.36735 25.1231 5.32436 25.1805L4.37451 26.4469H10.8361Z" fill="#EDF7E1"/>
<path d="M11.923 24.9958H5.69227C5.62062 24.9958 5.54995 25.0125 5.48586 25.0446C5.42178 25.0766 5.36603 25.1231 5.32304 25.1805L3.24612 27.9497C3.19469 28.0183 3.16337 28.0998 3.15567 28.1852C3.14798 28.2705 3.1642 28.3564 3.20253 28.433C3.24087 28.5097 3.29979 28.5742 3.3727 28.6192C3.44561 28.6643 3.52963 28.6882 3.61535 28.6882H8.92304C8.99469 28.6882 9.06536 28.6715 9.12945 28.6394C9.19353 28.6074 9.24928 28.5609 9.29227 28.5035L11.923 24.9958Z" stroke="#007AC9" stroke-width="0.922091" stroke-linecap="round" stroke-linejoin="round"/>
<path d="M14.6931 28.6882L11.9238 24.9958" stroke="#007AC9" stroke-width="0.922091" stroke-linecap="round" stroke-linejoin="round"/>
<path d="M3.6167 28.689V31.9197C3.6167 32.0421 3.66533 32.1595 3.75188 32.2461C3.83844 32.3326 3.95583 32.3813 4.07824 32.3813H10.0782V27.4585" stroke="#007AC9" stroke-width="0.922091" stroke-linecap="round" stroke-linejoin="round"/>
<path d="M10.0771 32.3813H13.3079C13.4303 32.3813 13.5477 32.3326 13.6343 32.2461C13.7208 32.1595 13.7695 32.0421 13.7695 31.9197V27.4585" stroke="#007AC9" stroke-width="0.922091" stroke-linecap="round" stroke-linejoin="round"/>
<path d="M23.9237 15.7648L20.3698 11.323C20.3266 11.2689 20.2719 11.2252 20.2096 11.1952C20.1473 11.1652 20.079 11.1495 20.0098 11.1494H12.1452C12.076 11.1495 12.0078 11.1652 11.9454 11.1952C11.8831 11.2252 11.8284 11.2689 11.7852 11.323L8.83135 15.0153C8.77716 15.0831 8.74321 15.1649 8.73341 15.2512C8.72362 15.3375 8.73837 15.4248 8.77597 15.5031C8.81357 15.5814 8.87249 15.6475 8.94597 15.6938C9.01945 15.7401 9.1045 15.7647 9.19135 15.7648H16.3175C16.3867 15.7647 16.4549 15.7491 16.5173 15.719C16.5796 15.689 16.6343 15.6453 16.6775 15.5913L20.1935 11.1882" stroke="#007AC9" stroke-width="0.922091" stroke-linecap="round" stroke-linejoin="round"/>
<path d="M11.9238 30.5347V32.3808" stroke="#007AC9" stroke-width="0.922091" stroke-linecap="round" stroke-linejoin="round"/>
<path d="M17.4619 29.6111H22.5388C22.6612 29.6111 22.7786 29.5625 22.8652 29.4759C22.9517 29.3893 23.0004 29.272 23.0004 29.1495V14.6111" stroke="#007AC9" stroke-width="0.922091" stroke-linecap="round" stroke-linejoin="round"/>
<path d="M16.0796 29.6111H17.4614V14.6111" stroke="#007AC9" stroke-width="0.922091" stroke-linecap="round" stroke-linejoin="round"/>
<path d="M9.15479 15.7649V23.1495" stroke="#007AC9" stroke-width="0.922091" stroke-linecap="round" stroke-linejoin="round"/>
<path d="M19.3086 16.6882V17.6113" stroke="#007AC9" stroke-width="0.922091" stroke-linecap="round" stroke-linejoin="round"/>
<path d="M21.1553 16.6882V17.6113" stroke="#007AC9" stroke-width="0.922091" stroke-linecap="round" stroke-linejoin="round"/>
<path d="M19.3086 20.3809V21.3039" stroke="#007AC9" stroke-width="0.922091" stroke-linecap="round" stroke-linejoin="round"/>
<path d="M21.1553 20.3809V21.3039" stroke="#007AC9" stroke-width="0.922091" stroke-linecap="round" stroke-linejoin="round"/>
<path d="M19.3086 24.073V24.9961" stroke="#007AC9" stroke-width="0.922091" stroke-linecap="round" stroke-linejoin="round"/>
<path d="M21.1553 24.073V24.9961" stroke="#007AC9" stroke-width="0.922091" stroke-linecap="round" stroke-linejoin="round"/>
</g>
<defs>
<clipPath id="clip0_2749_20350">
<rect width="22.1538" height="22.1538" fill="white" transform="translate(2.46191 10.6882)"/>
</clipPath>
</defs>
</svg>
