<svg width="869" height="816" viewBox="0 0 869 816" fill="none" xmlns="http://www.w3.org/2000/svg">
<g opacity="0.7">
<path d="M191 64.5C473.163 237.66 128.5 527 27.5018 698.489C-73.4964 869.978 802.348 811.325 1175.66 558.973L1124.34 -373.729L279.337 -327.241C95.7514 -309.588 -35.5 -74.5 191 64.5Z" fill="#E5F2FA" fill-opacity="0.7"/>
<path d="M278.815 -336.726L278.621 -336.716L278.428 -336.697C183.061 -327.527 101.131 -261.972 72.4206 -180.017C58.0036 -138.862 57.0092 -93.5193 74.6059 -49.3517C92.1899 -5.21593 128.034 37.0051 186.031 72.5969C254.661 114.714 283.84 162.914 289.248 213.507C294.729 264.784 276.031 320.455 244.614 377.54C213.265 434.501 169.976 491.611 127.847 545.587C122.849 551.99 117.864 558.354 112.915 564.671C76.4117 611.266 41.9064 655.311 19.316 693.668C12.2919 705.595 8.96974 717.456 10.205 728.969C11.451 740.581 17.1994 750.591 25.9715 758.956C43.038 775.23 72.7138 786.433 109.942 793.841C185.031 808.783 297.789 809.546 424.64 797.126C678.25 772.295 992.394 694.323 1180.98 566.843L1185.44 563.827L1185.14 558.451L1133.83 -374.25L1133.31 -383.736L1123.82 -383.214L278.815 -336.726Z" stroke="white" stroke-opacity="0.4" stroke-width="19"/>
</g>
</svg>
