<svg width="43" height="48" viewBox="0 0 43 48" fill="none" xmlns="http://www.w3.org/2000/svg">
<path d="M21.0676 42.1351C32.7028 42.1351 42.1351 32.7028 42.1351 21.0676C42.1351 9.43226 32.7028 0 21.0676 0C9.43226 0 0 9.43226 0 21.0676C0 32.7028 9.43226 42.1351 21.0676 42.1351Z" fill="white"/>
<g clip-path="url(#clip0_2803_79607)">
<g clip-path="url(#clip1_2803_79607)">
<path d="M25.759 37.7285V41.8349C25.759 43.9917 23.9441 44.8598 21.2216 44.8598C18.4992 44.8598 16.6842 43.9917 16.6842 41.8349V37.7285" fill="#EDF7E1"/>
<path d="M25.759 37.7285V41.8349C25.759 43.9917 23.9441 44.8598 21.2216 44.8598C18.4992 44.8598 16.6842 43.9917 16.6842 41.8349V37.7285" stroke="#203950" stroke-width="1.6237" stroke-linecap="round" stroke-linejoin="round"/>
<path d="M25.0049 38.0523C26.8164 37.3342 28.3659 36.0809 29.4468 34.4596C30.5277 32.8382 31.0886 30.9259 31.0548 28.9775C31.0082 26.3847 29.9575 23.9112 28.1238 22.0775C26.2901 20.2438 23.8166 19.1931 21.2238 19.1465C18.6309 19.1927 16.157 20.2433 14.3233 22.0771C12.4895 23.9108 11.4389 26.3846 11.3927 28.9775C11.3585 30.926 11.9192 32.8385 13.0002 34.4599C14.0811 36.0814 15.6309 37.3346 17.4426 38.0523H25.0049Z" fill="#D2ECB3"/>
<path d="M21.2267 24.0499C23.4125 24.0899 25.5252 24.8448 27.2415 26.1989C28.9579 27.5531 30.1835 29.4322 30.731 31.5487C30.9562 30.7105 31.0661 29.8455 31.0577 28.9775C31.0115 26.3846 29.9609 23.9108 28.1271 22.0771C26.2934 20.2433 23.8196 19.1927 21.2267 19.1465C18.6337 19.1927 16.1599 20.2433 14.3262 22.0771C12.4924 23.9108 11.4418 26.3846 11.3956 28.9775C11.3871 29.8455 11.497 30.7105 11.7223 31.5487C12.2698 29.4322 13.4954 27.5531 15.2118 26.1989C16.9282 24.8448 19.0408 24.0899 21.2267 24.0499Z" fill="#EDF7E1"/>
<path d="M25.0049 38.0523C26.8164 37.3342 28.3659 36.0809 29.4468 34.4596C30.5277 32.8382 31.0886 30.9259 31.0548 28.9775C31.0082 26.3847 29.9575 23.9112 28.1238 22.0775C26.2901 20.2438 23.8166 19.1931 21.2238 19.1465C18.6309 19.1927 16.157 20.2433 14.3233 22.0771C12.4895 23.9108 11.4389 26.3846 11.3927 28.9775C11.3585 30.926 11.9192 32.8385 13.0002 34.4599C14.0811 36.0813 15.6309 37.3346 17.4426 38.0523H25.0049Z" stroke="#203950" stroke-width="1.6237" stroke-linecap="round" stroke-linejoin="round"/>
<path d="M21.2233 44.8594V47.1281" stroke="#203950" stroke-width="1.6237" stroke-linecap="round" stroke-linejoin="round"/>
<path d="M21.2248 37.6V31.2476L18.1998 28.2227" stroke="#203950" stroke-width="1.6237" stroke-linecap="round" stroke-linejoin="round"/>
<path d="M16.6842 41.0781H25.759" stroke="#203950" stroke-width="1.6237" stroke-linecap="round" stroke-linejoin="round"/>
<path d="M21.2233 12.3418V15.3667" stroke="#203950" stroke-width="1.6237" stroke-linecap="round" stroke-linejoin="round"/>
<path d="M4.5885 27.4648H8.05357" stroke="#203950" stroke-width="1.6237" stroke-linecap="round" stroke-linejoin="round"/>
<path d="M8.36584 16.125L11.3908 19.1499" stroke="#203950" stroke-width="1.6237" stroke-linecap="round" stroke-linejoin="round"/>
<path d="M37.8602 27.4648H34.3951" stroke="#203950" stroke-width="1.6237" stroke-linecap="round" stroke-linejoin="round"/>
<path d="M34.0802 16.125L31.0553 19.1499" stroke="#203950" stroke-width="1.6237" stroke-linecap="round" stroke-linejoin="round"/>
<path d="M21.2233 31.2476L24.2482 28.2227" stroke="#203950" stroke-width="1.6237" stroke-linecap="round" stroke-linejoin="round"/>
</g>
</g>
<defs>
<clipPath id="clip0_2803_79607">
<rect width="36.8682" height="36.8682" fill="white" transform="translate(2.63342 11.1309)"/>
</clipPath>
<clipPath id="clip1_2803_79607">
<rect width="36.2993" height="36.2993" fill="white" transform="translate(3.07483 11.5859)"/>
</clipPath>
</defs>
</svg>
