<svg width="43" height="49" viewBox="0 0 43 49" fill="none" xmlns="http://www.w3.org/2000/svg">
<path d="M21.0676 43.1334C32.7028 43.1334 42.1351 33.7011 42.1351 22.0658C42.1351 10.4306 32.7028 0.998291 21.0676 0.998291C9.43226 0.998291 0 10.4306 0 22.0658C0 33.7011 9.43226 43.1334 21.0676 43.1334Z" fill="white"/>
<g clip-path="url(#clip0_3228_14102)">
<g clip-path="url(#clip1_3228_14102)">
<path d="M25.759 38.7269V42.8332C25.759 44.99 23.9441 45.8582 21.2216 45.8582C18.4992 45.8582 16.6842 44.99 16.6842 42.8332V38.7269" fill="#FFFBF4"/>
<path d="M25.759 38.7269V42.8332C25.759 44.99 23.9441 45.8582 21.2216 45.8582C18.4992 45.8582 16.6842 44.99 16.6842 42.8332V38.7269" stroke="#203950" stroke-width="1.6237" stroke-linecap="round" stroke-linejoin="round"/>
<path d="M25.0049 39.0507C26.8164 38.3326 28.3659 37.0793 29.4468 35.4579C30.5277 33.8366 31.0886 31.9242 31.0548 29.9759C31.0082 27.3831 29.9575 24.9095 28.1238 23.0758C26.2901 21.2421 23.8166 20.1914 21.2238 20.1448C18.6309 20.191 16.157 21.2417 14.3233 23.0754C12.4895 24.9092 11.4389 27.383 11.3927 29.9759C11.3585 31.9243 11.9192 33.8368 13.0002 35.4583C14.0811 37.0797 15.6309 38.3329 17.4426 39.0507H25.0049Z" fill="#FEE5BC"/>
<path d="M21.2267 25.0483C23.4125 25.0883 25.5252 25.8431 27.2415 27.1973C28.9579 28.5515 30.1835 30.4305 30.731 32.5471C30.9562 31.7088 31.0661 30.8438 31.0577 29.9759C31.0115 27.383 29.9609 24.9092 28.1271 23.0754C26.2934 21.2417 23.8196 20.191 21.2267 20.1448C18.6337 20.191 16.1599 21.2417 14.3262 23.0754C12.4924 24.9092 11.4418 27.383 11.3956 29.9759C11.3871 30.8438 11.497 31.7089 11.7223 32.5471C12.2698 30.4305 13.4954 28.5515 15.2118 27.1973C16.9282 25.8431 19.0408 25.0883 21.2267 25.0483Z" fill="#FFFBF4"/>
<path d="M25.0049 39.0507C26.8164 38.3326 28.3659 37.0793 29.4468 35.4579C30.5277 33.8366 31.0886 31.9242 31.0548 29.9759C31.0082 27.3831 29.9575 24.9095 28.1238 23.0758C26.2901 21.2421 23.8166 20.1914 21.2238 20.1448C18.6309 20.191 16.157 21.2417 14.3233 23.0754C12.4895 24.9092 11.4389 27.383 11.3927 29.9759C11.3585 31.9243 11.9192 33.8368 13.0002 35.4583C14.0811 37.0797 15.6309 38.3329 17.4426 39.0507H25.0049Z" stroke="#203950" stroke-width="1.6237" stroke-linecap="round" stroke-linejoin="round"/>
<path d="M21.2233 45.8577V48.1264" stroke="#203950" stroke-width="1.6237" stroke-linecap="round" stroke-linejoin="round"/>
<path d="M21.2248 38.5983V32.2459L18.1998 29.221" stroke="#203950" stroke-width="1.6237" stroke-linecap="round" stroke-linejoin="round"/>
<path d="M16.6842 42.0765H25.759" stroke="#203950" stroke-width="1.6237" stroke-linecap="round" stroke-linejoin="round"/>
<path d="M21.2233 13.3401V16.3651" stroke="#203950" stroke-width="1.6237" stroke-linecap="round" stroke-linejoin="round"/>
<path d="M4.5885 28.4632H8.05357" stroke="#203950" stroke-width="1.6237" stroke-linecap="round" stroke-linejoin="round"/>
<path d="M8.36584 17.1234L11.3908 20.1483" stroke="#203950" stroke-width="1.6237" stroke-linecap="round" stroke-linejoin="round"/>
<path d="M37.8602 28.4632H34.3951" stroke="#203950" stroke-width="1.6237" stroke-linecap="round" stroke-linejoin="round"/>
<path d="M34.0802 17.1234L31.0553 20.1483" stroke="#203950" stroke-width="1.6237" stroke-linecap="round" stroke-linejoin="round"/>
<path d="M21.2233 32.2459L24.2482 29.221" stroke="#203950" stroke-width="1.6237" stroke-linecap="round" stroke-linejoin="round"/>
</g>
</g>
<defs>
<clipPath id="clip0_3228_14102">
<rect width="36.8682" height="36.8682" fill="white" transform="translate(2.63342 12.1292)"/>
</clipPath>
<clipPath id="clip1_3228_14102">
<rect width="36.2993" height="36.2993" fill="white" transform="translate(3.07483 12.5843)"/>
</clipPath>
</defs>
</svg>
