<svg width="43" height="43" viewBox="0 0 43 43" fill="none" xmlns="http://www.w3.org/2000/svg">
<g id="Bulb" clip-path="url(#clip0_2803_79658)">
<path id="Vector" d="M26.9819 31.0322V35.823C26.9819 38.3393 24.8645 39.3522 21.6882 39.3522C18.512 39.3522 16.3945 38.3393 16.3945 35.823V31.0322" stroke="white" stroke-width="1.88803" stroke-linecap="round" stroke-linejoin="round"/>
<path id="Vector_2" d="M26.0978 31.4096C28.2112 30.5718 30.019 29.1096 31.28 27.218C32.5411 25.3264 33.1955 23.0953 33.1561 20.8222C33.1017 17.7973 31.8759 14.9114 29.7365 12.7721C27.5972 10.6328 24.7113 9.40689 21.6864 9.35254C18.6613 9.40645 15.7751 10.6322 13.6357 12.7716C11.4963 14.911 10.2706 17.7971 10.2167 20.8222C10.1767 23.0954 10.831 25.3267 12.0921 27.2184C13.3532 29.1101 15.1613 30.5722 17.275 31.4096H26.0978Z" stroke="white" stroke-width="1.88803" stroke-linecap="round" stroke-linejoin="round"/>
<path id="Vector_3" d="M21.6895 39.3506V41.9974" stroke="white" stroke-width="1.88803" stroke-linecap="round" stroke-linejoin="round"/>
<path id="Vector_4" d="M21.6893 30.8827V23.4715L18.1602 19.9424" stroke="white" stroke-width="1.88803" stroke-linecap="round" stroke-linejoin="round"/>
<path id="Vector_5" d="M16.3945 34.9385H26.9819" stroke="white" stroke-width="1.88803" stroke-linecap="round" stroke-linejoin="round"/>
<path id="Vector_6" d="M21.6895 1.41113V4.94027" stroke="white" stroke-width="1.88803" stroke-linecap="round" stroke-linejoin="round"/>
<path id="Vector_7" d="M2.2793 19.0576H6.32192" stroke="white" stroke-width="1.88803" stroke-linecap="round" stroke-linejoin="round"/>
<path id="Vector_8" d="M6.68945 5.82324L10.2186 9.35238" stroke="white" stroke-width="1.88803" stroke-linecap="round" stroke-linejoin="round"/>
<path id="Vector_9" d="M41.0973 19.0576H37.0547" stroke="white" stroke-width="1.88803" stroke-linecap="round" stroke-linejoin="round"/>
<path id="Vector_10" d="M36.6873 5.82324L33.1582 9.35238" stroke="white" stroke-width="1.88803" stroke-linecap="round" stroke-linejoin="round"/>
<path id="Vector_11" d="M21.6895 23.4715L25.2186 19.9424" stroke="white" stroke-width="1.88803" stroke-linecap="round" stroke-linejoin="round"/>
</g>
<defs>
<clipPath id="clip0_2803_79658">
<rect width="42.3496" height="42.3496" fill="white" transform="translate(0.511719 0.530273)"/>
</clipPath>
</defs>
</svg>
