<svg width="43" height="48" viewBox="0 0 43 48" fill="none" xmlns="http://www.w3.org/2000/svg">
<path d="M21.0676 42.1342C32.7028 42.1342 42.1351 32.702 42.1351 21.0667C42.1351 9.43141 32.7028 -0.000854492 21.0676 -0.000854492C9.43226 -0.000854492 0 9.43141 0 21.0667C0 32.702 9.43226 42.1342 21.0676 42.1342Z" fill="white"/>
<g clip-path="url(#clip0_3228_14079)">
<g clip-path="url(#clip1_3228_14079)">
<path d="M25.759 37.7277V41.834C25.759 43.9908 23.9441 44.859 21.2216 44.859C18.4992 44.859 16.6842 43.9908 16.6842 41.834V37.7277" fill="#E5F2FA"/>
<path d="M25.759 37.7277V41.834C25.759 43.9908 23.9441 44.859 21.2216 44.859C18.4992 44.859 16.6842 43.9908 16.6842 41.834V37.7277" stroke="#203950" stroke-width="1.6237" stroke-linecap="round" stroke-linejoin="round"/>
<path d="M25.0049 38.0515C26.8164 37.3334 28.3659 36.08 29.4468 34.4587C30.5277 32.8373 31.0886 30.925 31.0548 28.9767C31.0082 26.3839 29.9575 23.9103 28.1238 22.0766C26.2901 20.2429 23.8166 19.1922 21.2238 19.1456C18.6309 19.1918 16.157 20.2424 14.3233 22.0762C12.4895 23.91 11.4389 26.3838 11.3927 28.9767C11.3585 30.9251 11.9192 32.8376 13.0002 34.4591C14.0811 36.0805 15.6309 37.3337 17.4426 38.0515H25.0049Z" fill="#99CAE9"/>
<path d="M21.2267 24.0491C23.4125 24.0891 25.5252 24.8439 27.2415 26.1981C28.9579 27.5523 30.1835 29.4313 30.731 31.5479C30.9562 30.7096 31.0661 29.8446 31.0577 28.9767C31.0115 26.3838 29.9609 23.91 28.1271 22.0762C26.2934 20.2424 23.8196 19.1918 21.2267 19.1456C18.6337 19.1918 16.1599 20.2424 14.3262 22.0762C12.4924 23.91 11.4418 26.3838 11.3956 28.9767C11.3871 29.8446 11.497 30.7097 11.7223 31.5479C12.2698 29.4313 13.4954 27.5523 15.2118 26.1981C16.9282 24.8439 19.0408 24.0891 21.2267 24.0491Z" fill="#E5F2FA"/>
<path d="M25.0049 38.0515C26.8164 37.3334 28.3659 36.08 29.4468 34.4587C30.5277 32.8373 31.0886 30.925 31.0548 28.9767C31.0082 26.3839 29.9575 23.9103 28.1238 22.0766C26.2901 20.2429 23.8166 19.1922 21.2238 19.1456C18.6309 19.1918 16.157 20.2424 14.3233 22.0762C12.4895 23.91 11.4389 26.3838 11.3927 28.9767C11.3585 30.9251 11.9192 32.8376 13.0002 34.4591C14.0811 36.0805 15.6309 37.3337 17.4426 38.0515H25.0049Z" stroke="#203950" stroke-width="1.6237" stroke-linecap="round" stroke-linejoin="round"/>
<path d="M21.2233 44.8585V47.1272" stroke="#203950" stroke-width="1.6237" stroke-linecap="round" stroke-linejoin="round"/>
<path d="M21.2248 37.5991V31.2467L18.1998 28.2218" stroke="#203950" stroke-width="1.6237" stroke-linecap="round" stroke-linejoin="round"/>
<path d="M16.6842 41.0773H25.759" stroke="#203950" stroke-width="1.6237" stroke-linecap="round" stroke-linejoin="round"/>
<path d="M21.2233 12.3409V15.3659" stroke="#203950" stroke-width="1.6237" stroke-linecap="round" stroke-linejoin="round"/>
<path d="M4.5885 27.464H8.05357" stroke="#203950" stroke-width="1.6237" stroke-linecap="round" stroke-linejoin="round"/>
<path d="M8.36584 16.1241L11.3908 19.1491" stroke="#203950" stroke-width="1.6237" stroke-linecap="round" stroke-linejoin="round"/>
<path d="M37.8602 27.464H34.3951" stroke="#203950" stroke-width="1.6237" stroke-linecap="round" stroke-linejoin="round"/>
<path d="M34.0802 16.1241L31.0553 19.1491" stroke="#203950" stroke-width="1.6237" stroke-linecap="round" stroke-linejoin="round"/>
<path d="M21.2233 31.2467L24.2482 28.2218" stroke="#203950" stroke-width="1.6237" stroke-linecap="round" stroke-linejoin="round"/>
</g>
</g>
<defs>
<clipPath id="clip0_3228_14079">
<rect width="36.8682" height="36.8682" fill="white" transform="translate(2.63342 11.13)"/>
</clipPath>
<clipPath id="clip1_3228_14079">
<rect width="36.2993" height="36.2993" fill="white" transform="translate(3.07483 11.5851)"/>
</clipPath>
</defs>
</svg>
