<svg width="24" height="25" viewBox="0 0 24 25" fill="none" xmlns="http://www.w3.org/2000/svg">
<g id="Check Circle 1" clip-path="url(#clip0_2863_61722)">
<g id="Group">
<path id="Vector" d="M12 23.6819C18.3513 23.6819 23.5 18.5332 23.5 12.1819C23.5 5.83061 18.3513 0.681885 12 0.681885C5.64873 0.681885 0.5 5.83061 0.5 12.1819C0.5 18.5332 5.64873 23.6819 12 23.6819Z" fill="white" stroke="#333333" stroke-linecap="round" stroke-linejoin="round"/>
<path id="Vector_2" d="M18 7.18188L11.62 15.8419C11.5397 15.9512 11.438 16.043 11.3211 16.1118C11.2042 16.1805 11.0745 16.2248 10.94 16.2419C10.8073 16.2588 10.6725 16.249 10.5437 16.2129C10.4149 16.1768 10.2946 16.1153 10.19 16.0319L6 12.6819" stroke="#333333" stroke-linecap="round" stroke-linejoin="round"/>
</g>
</g>
<defs>
<clipPath id="clip0_2863_61722">
<rect width="24" height="24" fill="white" transform="translate(0 0.181885)"/>
</clipPath>
</defs>
</svg>
