<svg width="24" height="25" viewBox="0 0 24 25" fill="none" xmlns="http://www.w3.org/2000/svg">
<g id="clock">
<path id="Icon (Stroke)" fill-rule="evenodd" clip-rule="evenodd" d="M12 3.18188C7.02944 3.18188 3 7.21132 3 12.1819C3 17.1524 7.02944 21.1819 12 21.1819C16.9706 21.1819 21 17.1524 21 12.1819C21 7.21132 16.9706 3.18188 12 3.18188ZM1 12.1819C1 6.10675 5.92487 1.18188 12 1.18188C18.0751 1.18188 23 6.10675 23 12.1819C23 18.257 18.0751 23.1819 12 23.1819C5.92487 23.1819 1 18.257 1 12.1819ZM12 5.18188C12.5523 5.18188 13 5.6296 13 6.18188V11.5639L16.4472 13.2875C16.9412 13.5344 17.1414 14.1351 16.8944 14.6291C16.6474 15.1231 16.0468 15.3233 15.5528 15.0763L11.5528 13.0763C11.214 12.9069 11 12.5607 11 12.1819V6.18188C11 5.6296 11.4477 5.18188 12 5.18188Z" fill="#203950"/>
</g>
</svg>
