<svg width="48" height="48" viewBox="0 0 48 48" fill="none" xmlns="http://www.w3.org/2000/svg">
<rect width="48" height="48" rx="24" fill="#CCE4F4"/>
<g clip-path="url(#clip0_2864_79465)">
<path d="M26.25 28.5H25.5C25.1022 28.5 24.7206 28.342 24.4393 28.0607C24.158 27.7794 24 27.3978 24 27V23.25C24 23.0511 23.921 22.8603 23.7803 22.7197C23.6397 22.579 23.4489 22.5 23.25 22.5H22.5" stroke="#333333" stroke-width="1.3125" stroke-linecap="round" stroke-linejoin="round"/>
<path d="M23.625 19.5C23.4179 19.5 23.25 19.3321 23.25 19.125C23.25 18.9179 23.4179 18.75 23.625 18.75" stroke="#333333" stroke-width="1.3125"/>
<path d="M23.625 19.5C23.8321 19.5 24 19.3321 24 19.125C24 18.9179 23.8321 18.75 23.625 18.75" stroke="#333333" stroke-width="1.3125"/>
<path d="M24 35.25C30.2132 35.25 35.25 30.2132 35.25 24C35.25 17.7868 30.2132 12.75 24 12.75C17.7868 12.75 12.75 17.7868 12.75 24C12.75 30.2132 17.7868 35.25 24 35.25Z" stroke="#333333" stroke-width="1.3125" stroke-linecap="round" stroke-linejoin="round"/>
</g>
<defs>
<clipPath id="clip0_2864_79465">
<rect width="24" height="24" fill="white" transform="translate(12 12)"/>
</clipPath>
</defs>
</svg>
