<svg width="30" height="30" viewBox="0 0 30 30" fill="none" xmlns="http://www.w3.org/2000/svg">
<g id="facebook_logo_white.svg" clip-path="url(#clip0_2864_80641)">
<path id="Vector" d="M30 15.0905C30.0002 12.2237 29.1789 9.41687 27.6333 7.0024C26.0877 4.58794 23.8825 2.66695 21.279 1.46692C18.6754 0.266879 15.7825 -0.161945 12.9428 0.231222C10.1031 0.624388 7.43555 1.82308 5.25599 3.68535C3.07644 5.54762 1.47619 7.99548 0.644733 10.7391C-0.186722 13.4826 -0.214554 16.407 0.564531 19.1659C1.34362 21.9248 2.89699 24.4027 5.0407 26.3061C7.18442 28.2095 9.82869 29.4588 12.6604 29.9059V19.4401H8.85032V15.0905H12.6604V11.7905C12.6604 8.03822 14.9108 5.94099 18.3304 5.94099C19.4564 5.95794 20.5795 6.05964 21.6902 6.24523V9.92754H19.7999C19.4785 9.88566 19.1518 9.91653 18.8439 10.0179C18.5361 10.1192 18.2549 10.2884 18.0213 10.5131C17.7876 10.7377 17.6074 11.0119 17.494 11.3155C17.3806 11.6191 17.3368 11.9443 17.366 12.2671V15.0874H21.5401L20.8799 19.437H17.3416V29.9059C20.8693 29.3465 24.0819 27.5474 26.4021 24.8318C28.7223 22.1162 29.998 18.6623 30 15.0905Z" fill="#203950"/>
</g>
<defs>
<clipPath id="clip0_2864_80641">
<rect width="30" height="29.8195" fill="white" transform="translate(0 0.0904541)"/>
</clipPath>
</defs>
</svg>
