<svg width="41" height="40" viewBox="0 0 41 40" fill="none" xmlns="http://www.w3.org/2000/svg">
<g clip-path="url(#clip0_2694_94272)">
<path d="M16.4252 0.833496C17.7496 0.833496 19.0196 1.3596 19.9561 2.29606C20.8926 3.23253 21.4186 4.50266 21.4186 5.82701C21.4186 7.93595 18.4958 12.6648 17.1226 14.7688C17.047 14.8848 16.9436 14.9802 16.8218 15.0463C16.7 15.1123 16.5637 15.1469 16.4252 15.1469C16.2866 15.1469 16.1503 15.1123 16.0285 15.0463C15.9067 14.9802 15.8033 14.8848 15.7277 14.7688C14.3562 12.6632 11.4316 7.93595 11.4316 5.82701C11.4316 4.50266 11.9577 3.23253 12.8942 2.29606C13.8307 1.3596 15.1008 0.833496 16.4252 0.833496Z" stroke="#203950" stroke-width="1.66667" stroke-linecap="round" stroke-linejoin="round"/>
<path d="M23.177 37.5073C19.6915 39.3003 15.642 39.6558 11.8975 38.4975C8.15285 37.3393 5.01138 34.7595 3.14697 31.3116C1.28256 27.8638 0.843746 23.8225 1.92465 20.0548C3.00557 16.2872 5.52008 13.0932 8.9288 11.1582" stroke="#203950" stroke-width="1.66667" stroke-linecap="round" stroke-linejoin="round"/>
<path d="M23.8945 11.1484C26.457 12.6262 28.5274 14.8261 29.8469 17.4735" stroke="#203950" stroke-width="1.66667" stroke-linecap="round" stroke-linejoin="round"/>
<path d="M1.53906 22.4719H8.38852C9.27112 22.4716 10.1177 22.8219 10.7421 23.4456L12.4066 25.1101C12.7159 25.4193 12.9612 25.7863 13.1286 26.1903C13.296 26.5943 13.3822 27.0273 13.3822 27.4646C13.3822 27.9018 13.296 28.3348 13.1286 28.7388C12.9612 29.1428 12.7159 29.5099 12.4066 29.8189L10.7421 31.4834C10.1178 32.1076 9.76692 32.9543 9.76672 33.8371V37.5589" stroke="#203950" stroke-width="1.66667" stroke-linecap="round" stroke-linejoin="round"/>
<path d="M29.8494 17.4785H22.2509C21.3681 17.4785 20.5212 17.8292 19.8969 18.4535C19.2726 19.0778 18.9219 19.9245 18.9219 20.8075C18.9206 21.3425 19.0497 21.8698 19.2981 22.3438" stroke="#203950" stroke-width="1.66667" stroke-linecap="round" stroke-linejoin="round"/>
<path d="M28.8842 35.8662C33.0477 35.8662 36.4229 32.4911 36.4229 28.3276C36.4229 24.1642 33.0477 20.7891 28.8842 20.7891C24.7209 20.7891 21.3457 24.1642 21.3457 28.3276C21.3457 32.4911 24.7209 35.8662 28.8842 35.8662Z" stroke="#203950" stroke-width="1.66667" stroke-linecap="round" stroke-linejoin="round"/>
<path d="M39.6562 39.0985L34.25 33.6924" stroke="#203950" stroke-width="1.66667" stroke-linecap="round" stroke-linejoin="round"/>
<path d="M16.4245 6.24398C16.1944 6.24398 16.0078 6.05743 16.0078 5.82731C16.0078 5.59719 16.1944 5.41064 16.4245 5.41064" stroke="#203950" stroke-width="1.66667"/>
<path d="M16.4238 6.24398C16.6539 6.24398 16.8405 6.05743 16.8405 5.82731C16.8405 5.59719 16.6539 5.41064 16.4238 5.41064" stroke="#203950" stroke-width="1.66667"/>
</g>
<defs>
<clipPath id="clip0_2694_94272">
<rect width="40" height="40" fill="white" transform="translate(0.5)"/>
</clipPath>
</defs>
</svg>
