<svg width="24" height="25" viewBox="0 0 24 25" fill="none" xmlns="http://www.w3.org/2000/svg">
<g id="Information Circle" clip-path="url(#clip0_2985_14184)">
<path id="Vector" d="M12 23.1839C18.0751 23.1839 23 18.259 23 12.1839C23 6.1087 18.0751 1.18384 12 1.18384C5.92487 1.18384 1 6.1087 1 12.1839C1 18.259 5.92487 23.1839 12 23.1839Z" fill="white" stroke="#333333" stroke-linecap="round" stroke-linejoin="round"/>
<path id="Vector_2" d="M14.5 17.1877H13C12.7348 17.1877 12.4804 17.0823 12.2929 16.8948C12.1054 16.7073 12 16.4529 12 16.1877V9.68774C12 9.55514 11.9473 9.42796 11.8536 9.33419C11.7598 9.24042 11.6326 9.18774 11.5 9.18774H10" stroke="#333333" stroke-linecap="round" stroke-linejoin="round"/>
<path id="Vector_3" d="M11.7422 7.18188C11.6041 7.18188 11.4922 7.06995 11.4922 6.93188C11.4922 6.79381 11.6041 6.68188 11.7422 6.68188" stroke="#333333"/>
<path id="Vector_4" d="M11.7422 7.18188C11.8802 7.18188 11.9922 7.06995 11.9922 6.93188C11.9922 6.79381 11.8802 6.68188 11.7422 6.68188" stroke="#333333"/>
</g>
<defs>
<clipPath id="clip0_2985_14184">
<rect width="24" height="24" fill="white" transform="translate(0 0.181885)"/>
</clipPath>
</defs>
</svg>
