<svg width="30" height="30" viewBox="0 0 30 30" fill="none" xmlns="http://www.w3.org/2000/svg">
<g clip-path="url(#clip0_2694_94406)">
<path d="M25.6088 0H4.3943C3.22927 0.00135013 2.11235 0.464753 1.28855 1.28855C0.464753 2.11235 0.00135013 3.22927 0 4.3943V25.6088C0.00323798 26.7726 0.467474 27.8876 1.29107 28.7099C2.11466 29.5322 3.23051 29.9946 4.3943 29.9959H25.6088C26.7713 29.9927 27.8853 29.5294 28.7074 28.7074C29.5294 27.8853 29.9927 26.7713 29.9959 25.6088V4.3943C29.9946 3.23051 29.5322 2.11466 28.7099 1.29107C27.8876 0.467474 26.7726 0.00323798 25.6088 0ZM10.6108 23.7896H7.08985V11.4842H10.6057L10.6108 23.7896ZM10.6108 9.72725H7.08985V6.2114H10.6057L10.6108 9.72725ZM22.9152 23.7896H19.3943V16.7579C19.3943 16.2917 19.2091 15.8446 18.8794 15.5149C18.5497 15.1852 18.1026 15 17.6364 15C17.1701 15 16.723 15.1852 16.3933 15.5149C16.0637 15.8446 15.8785 16.2917 15.8785 16.7579V23.7896H12.3636V11.4842H15.8795V12.1463C16.7115 11.7694 17.6045 11.5451 18.5159 11.4842C19.7117 11.5379 20.8395 12.0555 21.66 12.9272C22.4804 13.7989 22.9289 14.956 22.9101 16.1529L22.9152 23.7896Z" fill="#203950"/>
</g>
<defs>
<clipPath id="clip0_2694_94406">
<rect width="30" height="30" fill="white"/>
</clipPath>
</defs>
</svg>
