<svg width="28" height="32" viewBox="0 0 28 32" fill="none" xmlns="http://www.w3.org/2000/svg">
<path d="M13.5388 27.0776C21.0161 27.0776 27.0776 21.0161 27.0776 13.5388C27.0776 6.06153 21.0161 0 13.5388 0C6.06153 0 0 6.06153 0 13.5388C0 21.0161 6.06153 27.0776 13.5388 27.0776Z" fill="#E5F2FA"/>
<path d="M10.7916 14.1233H24.5416" stroke="#007AC9" stroke-width="0.916667" stroke-linecap="round" stroke-linejoin="round"/>
<path d="M10.7916 21.4565H24.5416" stroke="#007AC9" stroke-width="0.916667" stroke-linecap="round" stroke-linejoin="round"/>
<path d="M10.7916 28.7898H24.5416" stroke="#007AC9" stroke-width="0.916667" stroke-linecap="round" stroke-linejoin="round"/>
<path d="M6.20837 12.2898H4.37504C3.86878 12.2898 3.45837 12.7002 3.45837 13.2065V15.0398C3.45837 15.5461 3.86878 15.9565 4.37504 15.9565H6.20837C6.71464 15.9565 7.12504 15.5461 7.12504 15.0398V13.2065C7.12504 12.7002 6.71464 12.2898 6.20837 12.2898Z" fill="#D2ECB3" stroke="#007AC9" stroke-width="0.916667" stroke-linecap="round" stroke-linejoin="round"/>
<path d="M6.20837 19.6233H4.37504C3.86878 19.6233 3.45837 20.0337 3.45837 20.54V22.3733C3.45837 22.8796 3.86878 23.29 4.37504 23.29H6.20837C6.71464 23.29 7.12504 22.8796 7.12504 22.3733V20.54C7.12504 20.0337 6.71464 19.6233 6.20837 19.6233Z" fill="#D2ECB3" stroke="#007AC9" stroke-width="0.916667" stroke-linecap="round" stroke-linejoin="round"/>
<path d="M6.20837 26.9565H4.37504C3.86878 26.9565 3.45837 27.3669 3.45837 27.8732V29.7065C3.45837 30.2128 3.86878 30.6232 4.37504 30.6232H6.20837C6.71464 30.6232 7.12504 30.2128 7.12504 29.7065V27.8732C7.12504 27.3669 6.71464 26.9565 6.20837 26.9565Z" fill="#D2ECB3" stroke="#007AC9" stroke-width="0.916667" stroke-linecap="round" stroke-linejoin="round"/>
</svg>
