<svg width="28" height="33" viewBox="0 0 28 33" fill="none" xmlns="http://www.w3.org/2000/svg">
<path d="M13.5385 27.919C21.0155 27.919 27.0769 21.8576 27.0769 14.3805C27.0769 6.90342 21.0155 0.842041 13.5385 0.842041C6.06138 0.842041 0 6.90342 0 14.3805C0 21.8576 6.06138 27.919 13.5385 27.919Z" fill="#E5F2FA"/>
<g clip-path="url(#clip0_2749_20318)">
<path d="M14.2049 21.7646C14.1187 21.8545 14.0153 21.926 13.9007 21.9749C13.7862 22.0238 13.663 22.049 13.5384 22.049C13.4139 22.049 13.2907 22.0238 13.1761 21.9749C13.0616 21.926 12.9581 21.8545 12.872 21.7646L8.03135 16.7116C7.54783 16.2281 7.22871 15.6048 7.1192 14.9298C7.00969 14.2549 7.11535 13.5626 7.4212 12.951C7.652 12.4892 7.98929 12.0888 8.40524 11.7829C8.82119 11.477 9.30389 11.2744 9.81354 11.1917C10.3232 11.109 10.8452 11.1487 11.3365 11.3074C11.8278 11.4661 12.2744 11.7393 12.6394 12.1046L13.5384 13.0036L14.4375 12.1046C14.8025 11.7393 15.249 11.4661 15.7403 11.3074C16.2317 11.1487 16.7537 11.109 17.2633 11.1917C17.773 11.2744 18.2557 11.477 18.6716 11.7829C19.0876 12.0888 19.4249 12.4892 19.6557 12.951C19.9615 13.5626 20.0672 14.2549 19.9577 14.9298C19.8482 15.6048 19.529 16.2281 19.0455 16.7116L14.2049 21.7646Z" fill="#D2ECB3"/>
<path d="M14.4379 12.1053L13.5388 13.0044L12.6398 12.1053C12.1445 11.6064 11.5008 11.2815 10.8052 11.1794C10.1097 11.0773 9.39978 11.2034 8.78201 11.5389C8.16424 11.8745 7.6719 12.4012 7.37886 13.0402C7.08581 13.6793 7.00785 14.3961 7.15668 15.0831C9.12933 16.0991 11.3201 16.6184 13.5388 16.596C15.7578 16.6178 17.9485 16.0978 19.921 15.0813C20.0698 14.3942 19.9918 13.6774 19.6988 13.0384C19.4058 12.3994 18.9134 11.8726 18.2956 11.5371C17.6779 11.2016 16.968 11.0754 16.2724 11.1775C15.5769 11.2796 14.9332 11.6045 14.4379 12.1034V12.1053Z" fill="#EDF7E1"/>
<path d="M14.2049 21.7646C14.1187 21.8545 14.0153 21.926 13.9007 21.9749C13.7862 22.0238 13.663 22.049 13.5384 22.049C13.4139 22.049 13.2907 22.0238 13.1761 21.9749C13.0616 21.926 12.9581 21.8545 12.872 21.7646L8.03135 16.7116C7.54783 16.2281 7.22871 15.6048 7.1192 14.9298C7.00969 14.2549 7.11535 13.5626 7.4212 12.951C7.652 12.4892 7.98929 12.0888 8.40524 11.7829C8.82119 11.477 9.30389 11.2744 9.81354 11.1917C10.3232 11.109 10.8452 11.1487 11.3365 11.3074C11.8278 11.4661 12.2744 11.7393 12.6394 12.1046L13.5384 13.0036L14.4375 12.1046C14.8025 11.7393 15.249 11.4661 15.7403 11.3074C16.2317 11.1487 16.7537 11.109 17.2633 11.1917C17.773 11.2744 18.2557 11.477 18.6716 11.7829C19.0876 12.0888 19.4249 12.4892 19.6557 12.951C19.9615 13.5626 20.0672 14.2549 19.9577 14.9298C19.8482 15.6048 19.529 16.2281 19.0455 16.7116L14.2049 21.7646Z" stroke="#007AC9" stroke-width="0.921106" stroke-linecap="round" stroke-linejoin="round"/>
<path d="M22.3394 32.3798C23.5351 29.4853 24.1517 26.3843 24.1541 23.2525V19.2878C24.1526 18.9807 24.0349 18.6855 23.8247 18.4616C23.6144 18.2378 23.3272 18.1017 23.0208 18.0809C22.7144 18.0601 22.4114 18.1561 22.1729 18.3495C21.9343 18.5429 21.7778 18.8194 21.7347 19.1235L20.591 27.5115C20.56 27.7 20.465 27.8721 20.322 27.9988C20.1789 28.1254 19.9966 28.1988 19.8057 28.2068C19.6148 28.2147 19.427 28.1566 19.274 28.0422C19.121 27.9278 19.012 27.7642 18.9655 27.5789L18.3637 24.8743C18.3084 24.6284 18.1645 24.4115 17.9594 24.2651C17.7544 24.1186 17.5025 24.0529 17.252 24.0804C17.0016 24.108 16.77 24.2268 16.6016 24.4143C16.4333 24.6018 16.3399 24.8448 16.3394 25.0968C16.3396 26.972 16.5311 28.8422 16.9107 30.6786L17.2624 32.3798" fill="#EDF7E1"/>
<path d="M22.3394 32.3798C23.5351 29.4853 24.1517 26.3843 24.1541 23.2525V19.2878C24.1526 18.9807 24.0349 18.6855 23.8247 18.4616C23.6144 18.2378 23.3272 18.1017 23.0208 18.0809C22.7144 18.0601 22.4114 18.1561 22.1729 18.3495C21.9343 18.5429 21.7778 18.8194 21.7347 19.1235L20.591 27.5115C20.56 27.7 20.465 27.8721 20.322 27.9988C20.1789 28.1254 19.9966 28.1988 19.8057 28.2068C19.6148 28.2147 19.427 28.1566 19.274 28.0422C19.121 27.9278 19.012 27.7642 18.9655 27.5789L18.3637 24.8743C18.3084 24.6284 18.1645 24.4115 17.9594 24.2651C17.7544 24.1186 17.5025 24.0529 17.252 24.0804C17.0016 24.108 16.77 24.2268 16.6016 24.4143C16.4333 24.6018 16.3399 24.8448 16.3394 25.0968C16.3396 26.972 16.5311 28.8422 16.9107 30.6786L17.2624 32.3798" stroke="#007AC9" stroke-width="0.921106" stroke-linecap="round" stroke-linejoin="round"/>
<path d="M4.73762 32.3798C3.54183 29.4853 2.92528 26.3843 2.92285 23.2525V19.2878C2.92436 18.9807 3.04206 18.6855 3.2523 18.4616C3.46254 18.2378 3.74973 18.1017 4.05616 18.0809C4.36258 18.0601 4.66553 18.1561 4.90411 18.3495C5.14269 18.5429 5.29922 18.8194 5.34224 19.1235L6.48593 27.5115C6.51693 27.7 6.61197 27.8721 6.75502 27.9988C6.89807 28.1254 7.08039 28.1988 7.27127 28.2068C7.46216 28.2147 7.64994 28.1566 7.80298 28.0422C7.95602 27.9278 8.06496 27.7642 8.11147 27.5789L8.71331 24.8743C8.76855 24.6284 8.91246 24.4115 9.11753 24.2651C9.3226 24.1186 9.57445 24.0529 9.82493 24.0804C10.0754 24.108 10.307 24.2268 10.4754 24.4143C10.6437 24.6018 10.7371 24.8448 10.7376 25.0968C10.7373 26.972 10.5459 28.8422 10.1662 30.6786L9.81454 32.3798" fill="#EDF7E1"/>
<path d="M4.73762 32.3798C3.54183 29.4853 2.92528 26.3843 2.92285 23.2525V19.2878C2.92436 18.9807 3.04206 18.6855 3.2523 18.4616C3.46254 18.2378 3.74973 18.1017 4.05616 18.0809C4.36258 18.0601 4.66553 18.1561 4.90411 18.3495C5.14269 18.5429 5.29922 18.8194 5.34224 19.1235L6.48593 27.5115C6.51693 27.7 6.61197 27.8721 6.75502 27.9988C6.89807 28.1254 7.08039 28.1988 7.27127 28.2068C7.46216 28.2147 7.64994 28.1566 7.80298 28.0422C7.95602 27.9278 8.06496 27.7642 8.11147 27.5789L8.71331 24.8743C8.76855 24.6284 8.91246 24.4115 9.11753 24.2651C9.3226 24.1186 9.57445 24.0529 9.82493 24.0804C10.0754 24.108 10.307 24.2268 10.4754 24.4143C10.6437 24.6018 10.7371 24.8448 10.7376 25.0968C10.7373 26.972 10.5459 28.8422 10.1662 30.6786L9.81454 32.3798" stroke="#007AC9" stroke-width="0.921106" stroke-linecap="round" stroke-linejoin="round"/>
</g>
<defs>
<clipPath id="clip0_2749_20318">
<rect width="22.1538" height="22.1538" fill="white" transform="translate(2.46143 10.6882)"/>
</clipPath>
</defs>
</svg>
