<svg width="18" height="19" viewBox="0 0 18 19" fill="none" xmlns="http://www.w3.org/2000/svg">
<g id="mail-01">
<path id="Icon (Stroke)" fill-rule="evenodd" clip-rule="evenodd" d="M5.06897 2.7627H12.9309C13.5346 2.76269 14.0329 2.76268 14.4388 2.79584C14.8604 2.83029 15.2479 2.90421 15.6119 3.08968C16.1764 3.3773 16.6353 3.83624 16.923 4.40072C17.1019 4.75198 17.177 5.12515 17.213 5.52968C17.2531 5.65222 17.2602 5.78148 17.2363 5.90489C17.25 6.24248 17.25 6.63296 17.2499 7.0817V11.9437C17.25 12.5474 17.25 13.0457 17.2168 13.4516C17.1824 13.8731 17.1084 14.2607 16.923 14.6247C16.6353 15.1892 16.1764 15.6481 15.6119 15.9357C15.2479 16.1212 14.8604 16.1951 14.4388 16.2296C14.0329 16.2627 13.5347 16.2627 12.9309 16.2627H5.06895C4.46523 16.2627 3.96697 16.2627 3.56107 16.2296C3.1395 16.1951 2.75197 16.1212 2.38797 15.9357C1.82348 15.6481 1.36454 15.1892 1.07692 14.6247C0.891455 14.2607 0.817531 13.8731 0.783088 13.4516C0.749924 13.0457 0.749932 12.5474 0.749942 11.9437V7.08172C0.749935 6.63297 0.749929 6.24249 0.763545 5.90489C0.739728 5.78148 0.746757 5.65221 0.786854 5.52967C0.822845 5.12514 0.897949 4.75198 1.07692 4.40072C1.36454 3.83624 1.82348 3.3773 2.38797 3.08968C2.75197 2.90421 3.1395 2.83029 3.56107 2.79584C3.96697 2.76268 4.46524 2.76269 5.06897 2.7627ZM2.24994 7.20319V11.9127C2.24994 12.5551 2.25053 12.9919 2.27811 13.3294C2.30497 13.6582 2.35367 13.8264 2.41343 13.9437C2.55724 14.2259 2.78671 14.4554 3.06896 14.5992C3.18626 14.659 3.35441 14.7077 3.68322 14.7345C4.02079 14.7621 4.45751 14.7627 5.09994 14.7627H12.8999C13.5424 14.7627 13.9791 14.7621 14.3167 14.7345C14.6455 14.7077 14.8136 14.659 14.9309 14.5992C15.2132 14.4554 15.4426 14.2259 15.5865 13.9437C15.6462 13.8264 15.6949 13.6582 15.7218 13.3294C15.7494 12.9919 15.7499 12.5551 15.7499 11.9127V7.20319L10.8063 10.6637C10.7772 10.6841 10.7484 10.7043 10.7198 10.7244C10.3114 11.0112 9.95267 11.2631 9.54415 11.3649C9.18681 11.454 8.81307 11.454 8.45574 11.3649C8.04722 11.2631 7.68854 11.0112 7.28005 10.7244C7.25146 10.7043 7.22264 10.6841 7.19354 10.6637L2.24994 7.20319ZM15.6879 5.41566L9.94616 9.43486C9.39945 9.81755 9.28362 9.88395 9.18134 9.90944C9.06223 9.93914 8.93765 9.93914 8.81854 9.90944C8.71626 9.88395 8.60043 9.81755 8.05373 9.43485L2.31202 5.41566C2.33881 5.26028 2.37367 5.15974 2.41343 5.08171C2.55724 4.79947 2.78671 4.57 3.06896 4.42619C3.18626 4.36642 3.35441 4.31772 3.68322 4.29086C4.02079 4.26328 4.45751 4.2627 5.09994 4.2627H12.8999C13.5424 4.2627 13.9791 4.26328 14.3167 4.29086C14.6455 4.31772 14.8136 4.36642 14.9309 4.42619C15.2132 4.57 15.4426 4.79947 15.5865 5.08171C15.6262 5.15974 15.6611 5.26028 15.6879 5.41566Z" fill="#007AC9"/>
</g>
</svg>
