<svg width="18" height="19" viewBox="0 0 18 19" fill="none" xmlns="http://www.w3.org/2000/svg">
<g id="marker-pin-02">
<path id="Icon (Stroke)" fill-rule="evenodd" clip-rule="evenodd" d="M9 2.7627C6.1005 2.7627 3.75 5.1132 3.75 8.0127C3.75 9.73709 4.6921 11.0523 5.97851 12.3922C6.28623 12.7127 6.60551 13.0267 6.93164 13.3474L6.9683 13.3835C7.30417 13.7138 7.6471 14.0518 7.97374 14.396C8.33398 14.7757 8.68572 15.1743 9 15.5988C9.31428 15.1743 9.66602 14.7757 10.0263 14.396C10.3529 14.0518 10.6958 13.7138 11.0317 13.3835L11.0684 13.3474C11.3945 13.0266 11.7138 12.7127 12.0215 12.3922C13.3079 11.0523 14.25 9.73709 14.25 8.0127C14.25 5.1132 11.8995 2.7627 9 2.7627ZM2.25 8.0127C2.25 4.28477 5.27208 1.2627 9 1.2627C12.7279 1.2627 15.75 4.28477 15.75 8.0127C15.75 10.352 14.4421 12.0368 13.1035 13.431C12.7805 13.7674 12.4474 14.095 12.1253 14.4118L12.0835 14.4529C11.7456 14.7853 11.4205 15.1059 11.1144 15.4285C10.4989 16.0772 9.99631 16.6971 9.67082 17.3481C9.54378 17.6022 9.28408 17.7627 9 17.7627C8.71592 17.7627 8.45622 17.6022 8.32918 17.3481C8.00369 16.6971 7.50113 16.0772 6.88564 15.4285C6.57946 15.1059 6.25443 14.7853 5.91647 14.4529L5.87464 14.4117C5.55259 14.095 5.21949 13.7674 4.89649 13.431C3.5579 12.0368 2.25 10.352 2.25 8.0127ZM9 6.1377C8.17157 6.1377 7.5 6.80927 7.5 7.6377C7.5 8.46612 8.17157 9.1377 9 9.1377C9.82843 9.1377 10.5 8.46612 10.5 7.6377C10.5 6.80927 9.82843 6.1377 9 6.1377ZM6 7.6377C6 5.98084 7.34315 4.6377 9 4.6377C10.6569 4.6377 12 5.98084 12 7.6377C12 9.29455 10.6569 10.6377 9 10.6377C7.34315 10.6377 6 9.29455 6 7.6377Z" fill="#007AC9"/>
</g>
</svg>
