<svg width="40" height="40" viewBox="0 0 40 40" fill="none" xmlns="http://www.w3.org/2000/svg">
<path d="M2.5 30.8333C2.5 31.7174 2.85119 32.5652 3.47631 33.1904C4.10143 33.8155 4.94928 34.1667 5.83333 34.1667H7.5C7.94203 34.1667 8.36595 33.9911 8.67851 33.6785C8.99107 33.366 9.16667 32.942 9.16667 32.5V19.1667C9.16667 18.7246 8.99107 18.3007 8.67851 17.9882C8.36595 17.6756 7.94203 17.5 7.5 17.5H5.83333C4.94928 17.5 4.10143 17.8512 3.47631 18.4763C2.85119 19.1014 2.5 19.9493 2.5 20.8333V30.8333Z" stroke="#203950" stroke-width="1.66667" stroke-linecap="round" stroke-linejoin="round"/>
<path d="M5.83203 17.4999V14.9999C5.83203 11.2427 7.32459 7.63934 9.98135 4.98257C12.6381 2.32581 16.2415 0.833252 19.9987 0.833252C23.7559 0.833252 27.3593 2.32581 30.016 4.98257C32.6728 7.63934 34.1654 11.2427 34.1654 14.9999V17.4999" stroke="#203950" stroke-width="1.66667" stroke-linecap="round" stroke-linejoin="round"/>
<path d="M22.5 37.4999C22.5 37.9419 22.3244 38.3659 22.0118 38.6784C21.6993 38.991 21.2754 39.1666 20.8333 39.1666H19.1667C18.7246 39.1666 18.3007 38.991 17.9882 38.6784C17.6756 38.3659 17.5 37.9419 17.5 37.4999C17.5 37.0579 17.6756 36.634 17.9882 36.3214C18.3007 36.0088 18.7246 35.8333 19.1667 35.8333H20.8333C21.2754 35.8333 21.6993 36.0088 22.0118 36.3214C22.3244 36.634 22.5 37.0579 22.5 37.4999Z" stroke="#203950" stroke-width="1.66667" stroke-linecap="round" stroke-linejoin="round"/>
<path d="M22.5 37.4999H26.6667C27.7717 37.4999 28.8315 37.0609 29.6129 36.2795C30.3943 35.4981 30.8333 34.4383 30.8333 33.3333" stroke="#203950" stroke-width="1.66667" stroke-linecap="round" stroke-linejoin="round"/>
<path d="M8.51367 17.8435L11.167 19.8335C11.581 20.144 11.917 20.5466 12.1484 21.0095C12.3799 21.4723 12.5003 21.9827 12.5003 22.5002V29.1668C12.5003 29.6843 12.3799 30.1947 12.1484 30.6575C11.917 31.1204 11.581 31.523 11.167 31.8335L8.51367 33.8235" stroke="#203950" stroke-width="1.66667" stroke-linecap="round" stroke-linejoin="round"/>
<path d="M37.4987 30.8333C37.4987 31.7174 37.1475 32.5652 36.5224 33.1904C35.8973 33.8155 35.0494 34.1667 34.1654 34.1667H32.4987C32.0567 34.1667 31.6327 33.9911 31.3202 33.6785C31.0076 33.366 30.832 32.942 30.832 32.5V19.1667C30.832 18.7246 31.0076 18.3007 31.3202 17.9882C31.6327 17.6756 32.0567 17.5 32.4987 17.5H34.1654C35.0494 17.5 35.8973 17.8512 36.5224 18.4763C37.1475 19.1014 37.4987 19.9493 37.4987 20.8333V30.8333Z" stroke="#203950" stroke-width="1.66667" stroke-linecap="round" stroke-linejoin="round"/>
<path d="M31.4867 17.8435L28.8333 19.8335C28.4193 20.144 28.0833 20.5466 27.8519 21.0095C27.6205 21.4723 27.5 21.9827 27.5 22.5002V29.1668C27.5 29.6843 27.6205 30.1947 27.8519 30.6575C28.0833 31.1204 28.4193 31.523 28.8333 31.8335L31.4867 33.8235" stroke="#203950" stroke-width="1.66667" stroke-linecap="round" stroke-linejoin="round"/>
</svg>
