<svg width="40" height="40" viewBox="0 0 40 40" fill="none" xmlns="http://www.w3.org/2000/svg">
<g clip-path="url(#clip0_2694_94260)">
<path d="M30.834 31.6668V37.5002C30.834 37.9422 30.6584 38.3661 30.3458 38.6787C30.0333 38.9912 29.6093 39.1668 29.1673 39.1668H2.50065C2.05862 39.1668 1.6347 38.9912 1.32214 38.6787C1.00958 38.3661 0.833984 37.9422 0.833984 37.5002V7.50016C0.833984 7.05814 1.00958 6.63421 1.32214 6.32165C1.6347 6.00909 2.05862 5.8335 2.50065 5.8335H7.50065" stroke="#203950" stroke-width="1.66667" stroke-linecap="round" stroke-linejoin="round"/>
<path d="M24.166 5.8335H29.166C29.608 5.8335 30.032 6.00909 30.3445 6.32165C30.6571 6.63421 30.8327 7.05814 30.8327 7.50016V13.3335" stroke="#203950" stroke-width="1.66667" stroke-linecap="round" stroke-linejoin="round"/>
<path d="M15.834 5.83154C17.2147 5.83154 18.334 4.71225 18.334 3.33154C18.334 1.95083 17.2147 0.831543 15.834 0.831543C14.4533 0.831543 13.334 1.95083 13.334 3.33154C13.334 4.71225 14.4533 5.83154 15.834 5.83154Z" stroke="#203950" stroke-width="1.66667" stroke-linecap="round" stroke-linejoin="round"/>
<path d="M18.1917 4.16675H22.5C22.942 4.16675 23.3659 4.34234 23.6785 4.6549C23.9911 4.96746 24.1667 5.39139 24.1667 5.83341V7.50008C24.1667 7.94211 23.9911 8.36603 23.6785 8.67859C23.3659 8.99115 22.942 9.16675 22.5 9.16675H9.16667C8.72464 9.16675 8.30072 8.99115 7.98816 8.67859C7.6756 8.36603 7.5 7.94211 7.5 7.50008V5.83341C7.5 5.39139 7.6756 4.96746 7.98816 4.6549C8.30072 4.34234 8.72464 4.16675 9.16667 4.16675H13.475" stroke="#203950" stroke-width="1.66667" stroke-linecap="round" stroke-linejoin="round"/>
<path d="M5.83398 15.8315H25.834" stroke="#203950" stroke-width="1.66667" stroke-linecap="round" stroke-linejoin="round"/>
<path d="M5.83398 22.4985H21.6107" stroke="#203950" stroke-width="1.66667" stroke-linecap="round" stroke-linejoin="round"/>
<path d="M5.83398 29.165H19.139" stroke="#203950" stroke-width="1.66667" stroke-linecap="round" stroke-linejoin="round"/>
<path d="M28.3333 29.1666L22.5 30.8333L24.1667 24.9999L34.1367 15.0299C34.6922 14.4921 35.4369 14.1943 36.2101 14.2005C36.9833 14.2068 37.723 14.5167 38.2698 15.0635C38.8165 15.6102 39.1265 16.35 39.1327 17.1232C39.139 17.8964 38.8411 18.6411 38.3033 19.1966L28.3333 29.1666Z" stroke="#203950" stroke-width="1.66667" stroke-linecap="round" stroke-linejoin="round"/>
</g>
<defs>
<clipPath id="clip0_2694_94260">
<rect width="40" height="40" fill="white"/>
</clipPath>
</defs>
</svg>
