<svg width="40" height="40" viewBox="0 0 40 40" fill="none" xmlns="http://www.w3.org/2000/svg">
<g clip-path="url(#clip0_2694_94252)">
<path d="M32.4999 19.1667V37.5001C32.4999 37.9421 32.3243 38.366 32.0118 38.6786C31.6992 38.9912 31.2753 39.1667 30.8333 39.1667H2.49992C2.05789 39.1667 1.63397 38.9912 1.32141 38.6786C1.00885 38.366 0.833252 37.9421 0.833252 37.5001V5.83341C0.833252 5.39139 1.00885 4.96746 1.32141 4.6549C1.63397 4.34234 2.05789 4.16675 2.49992 4.16675H24.1666" stroke="#203950" stroke-width="1.66667" stroke-linecap="round" stroke-linejoin="round"/>
<path d="M21.3733 23.3449L13.125 26.8783L16.66 18.6283L34.4567 0.833252L39.17 5.54659L21.3733 23.3449Z" stroke="#203950" stroke-width="1.66667" stroke-linecap="round" stroke-linejoin="round"/>
<path d="M36.1117 8.60831L31.3967 3.89331" stroke="#203950" stroke-width="1.66667" stroke-linecap="round" stroke-linejoin="round"/>
<path d="M21.3732 23.3463L16.6599 18.6296" stroke="#203950" stroke-width="1.66667" stroke-linecap="round" stroke-linejoin="round"/>
</g>
<defs>
<clipPath id="clip0_2694_94252">
<rect width="40" height="40" fill="white"/>
</clipPath>
</defs>
</svg>
