<svg width="18" height="19" viewBox="0 0 18 19" fill="none" xmlns="http://www.w3.org/2000/svg">
<g id="phone-02" clip-path="url(#clip0_2863_46558)">
<path id="Icon (Stroke)" fill-rule="evenodd" clip-rule="evenodd" d="M6.12109 0.762696H11.8789C12.2743 0.762683 12.6153 0.762671 12.8963 0.785624C13.1928 0.80985 13.4877 0.863336 13.7715 1.00793C14.1948 1.22365 14.5391 1.56785 14.7548 1.99122C14.8994 2.275 14.9528 2.56992 14.9771 2.86643C15 3.14736 15 3.48844 15 3.8838V14.1416C15 14.537 15 14.878 14.9771 15.159C14.9528 15.4555 14.8994 15.7504 14.7548 16.0342C14.5391 16.4575 14.1948 16.8017 13.7715 17.0175C13.4877 17.1621 13.1928 17.2155 12.8963 17.2398C12.6153 17.2627 12.2743 17.2627 11.8789 17.2627H6.12108C5.72572 17.2627 5.38466 17.2627 5.10373 17.2398C4.80722 17.2155 4.51231 17.1621 4.22852 17.0175C3.80516 16.8017 3.46095 16.4575 3.24524 16.0342C3.10064 15.7504 3.04715 15.4555 3.02293 15.159C2.99998 14.878 2.99999 14.537 3 14.1416V3.88379C2.99999 3.48843 2.99998 3.14735 3.02293 2.86643C3.04715 2.56992 3.10064 2.275 3.24524 1.99122C3.46095 1.56785 3.80516 1.22365 4.22852 1.00793C4.51231 0.863336 4.80722 0.80985 5.10373 0.785624C5.38466 0.762671 5.72573 0.762683 6.12109 0.762696ZM10.5 2.2627H7.5V2.5627C7.5 2.78509 7.50058 2.90678 7.50773 2.99422C7.50801 2.9977 7.5083 3.001 7.50859 3.00411C7.5117 3.0044 7.515 3.00468 7.51848 3.00497C7.60592 3.01211 7.72761 3.0127 7.95 3.0127H10.05C10.2724 3.0127 10.3941 3.01211 10.4815 3.00497C10.485 3.00468 10.4883 3.0044 10.4914 3.00411C10.4917 3.001 10.492 2.9977 10.4923 2.99422C10.4994 2.90678 10.5 2.78509 10.5 2.5627V2.2627ZM6 2.26275V2.5627C6 2.57068 6 2.57865 6 2.58662C5.99998 2.77591 5.99995 2.96025 6.01271 3.11637C6.02672 3.28781 6.05977 3.49011 6.16349 3.69368C6.3073 3.97593 6.53677 4.2054 6.81902 4.34921C7.02258 4.45293 7.22488 4.48598 7.39633 4.49999C7.55245 4.51274 7.73679 4.51272 7.92608 4.5127C7.93404 4.5127 7.94202 4.5127 7.95 4.5127L10.0739 4.5127C10.2632 4.51272 10.4476 4.51274 10.6037 4.49999C10.7751 4.48598 10.9774 4.45293 11.181 4.34921C11.4632 4.2054 11.6927 3.97592 11.8365 3.69368C11.9402 3.49011 11.9733 3.28781 11.9873 3.11637C12 2.96025 12 2.7759 12 2.58661L12 2.26275C12.3488 2.26308 12.5873 2.26538 12.7741 2.28064C12.9779 2.29729 13.0534 2.32555 13.0905 2.34444C13.2316 2.41635 13.3464 2.53108 13.4183 2.6722C13.4372 2.70929 13.4654 2.78483 13.4821 2.98857C13.4994 3.20108 13.5 3.48028 13.5 3.9127V14.1127C13.5 14.5451 13.4994 14.8243 13.4821 15.0368C13.4654 15.2406 13.4372 15.3161 13.4183 15.3532C13.3464 15.4943 13.2316 15.609 13.0905 15.681C13.0534 15.6998 12.9779 15.7281 12.7741 15.7448C12.5616 15.7621 12.2824 15.7627 11.85 15.7627H6.15C5.71759 15.7627 5.43838 15.7621 5.22588 15.7448C5.02213 15.7281 4.94659 15.6998 4.90951 15.681C4.76839 15.609 4.65365 15.4943 4.58175 15.3532C4.56285 15.3161 4.53459 15.2406 4.51795 15.0368C4.50058 14.8243 4.5 14.5451 4.5 14.1127V3.9127C4.5 3.48028 4.50058 3.20108 4.51795 2.98857C4.53459 2.78483 4.56285 2.70929 4.58175 2.6722C4.65365 2.53108 4.76839 2.41635 4.90951 2.34444C4.94659 2.32555 5.02213 2.29729 5.22588 2.28064C5.41274 2.26538 5.65117 2.26308 6 2.26275Z" fill="#007AC9"/>
</g>
<defs>
<clipPath id="clip0_2863_46558">
<rect width="18" height="18" fill="white" transform="translate(0 0.0126953)"/>
</clipPath>
</defs>
</svg>
