<svg width="41" height="40" viewBox="0 0 41 40" fill="none" xmlns="http://www.w3.org/2000/svg">
<g clip-path="url(#clip0_2694_94286)">
<path d="M17.024 23.4751L1.33398 39.1651" stroke="#203950" stroke-width="1.66667" stroke-linecap="round" stroke-linejoin="round"/>
<path d="M36.1892 14.3083C36.2986 14.4178 36.4285 14.5046 36.5715 14.5639C36.7145 14.6231 36.8678 14.6536 37.0225 14.6536C37.1773 14.6536 37.3306 14.6231 37.4735 14.5639C37.6165 14.5046 37.7464 14.4178 37.8559 14.3083L39.1775 12.9867C39.49 12.6741 39.6655 12.2503 39.6655 11.8083C39.6655 11.3664 39.49 10.9426 39.1775 10.63L29.8675 1.32001C29.555 1.00756 29.1311 0.832031 28.6892 0.832031C28.2473 0.832031 27.8234 1.00756 27.5109 1.32001L26.1892 2.64168C26.0797 2.7511 25.9929 2.88101 25.9337 3.024C25.8744 3.16698 25.844 3.32024 25.844 3.47501C25.844 3.62978 25.8744 3.78303 25.9337 3.92602C25.9929 4.069 26.0797 4.19892 26.1892 4.30834C26.2987 4.41777 26.3855 4.54768 26.4447 4.69066C26.504 4.83365 26.5345 4.9869 26.5345 5.14168C26.5345 5.29645 26.504 5.4497 26.4447 5.59269C26.3855 5.73567 26.2987 5.86559 26.1892 5.97501L19.1775 12.9867C18.865 13.2993 18.4412 13.4749 17.9992 13.475H12.7125C12.2705 13.4751 11.8467 13.6508 11.5342 13.9633L10.7009 14.7967C10.3884 15.1092 10.2129 15.5331 10.2129 15.975C10.2129 16.4169 10.3884 16.8408 10.7009 17.1533L23.3442 29.7967C23.6567 30.1091 24.0806 30.2847 24.5225 30.2847C24.9645 30.2847 25.3883 30.1091 25.7009 29.7967L26.5342 28.9633C26.8468 28.6509 27.0224 28.227 27.0225 27.785V22.5C27.0226 22.058 27.1983 21.6342 27.5109 21.3217L34.5225 14.31C34.6318 14.2004 34.7617 14.1135 34.9046 14.0541C35.0475 13.9947 35.2008 13.9641 35.3555 13.9639C35.5103 13.9638 35.6636 13.9941 35.8066 14.0532C35.9497 14.1123 36.0797 14.199 36.1892 14.3083Z" stroke="#203950" stroke-width="1.66667" stroke-linecap="round" stroke-linejoin="round"/>
</g>
<defs>
<clipPath id="clip0_2694_94286">
<rect width="40" height="40" fill="white" transform="translate(0.5)"/>
</clipPath>
</defs>
</svg>
