<svg width="28" height="33" viewBox="0 0 28 33" fill="none" xmlns="http://www.w3.org/2000/svg">
<path d="M13.5385 27.919C21.0156 27.919 27.077 21.8576 27.077 14.3805C27.077 6.90343 21.0156 0.842041 13.5385 0.842041C6.06139 0.842041 0 6.90343 0 14.3805C0 21.8576 6.06139 27.919 13.5385 27.919Z" fill="#E5F2FA"/>
<g clip-path="url(#clip0_2749_20381)">
<path d="M3.84495 24.9961L4.52711 29.4268C4.59335 29.8634 4.81388 30.2618 5.1487 30.5497C5.48352 30.8376 5.91045 30.996 6.35204 30.9961H20.7225C21.1641 30.996 21.591 30.8376 21.9259 30.5497C22.2607 30.2618 22.4812 29.8634 22.5475 29.4268L23.2296 24.9961C23.4744 24.9961 23.7092 24.8988 23.8823 24.7257C24.0554 24.5526 24.1527 24.3178 24.1527 24.073V18.073C24.1527 17.5833 23.9582 17.1138 23.612 16.7675C23.2657 16.4213 22.7962 16.2268 22.3065 16.2268H4.76803C4.2784 16.2268 3.80882 16.4213 3.4626 16.7675C3.11638 17.1138 2.92188 17.5833 2.92188 18.073V24.073C2.92188 24.3178 3.01913 24.5526 3.19224 24.7257C3.36535 24.8988 3.60014 24.9961 3.84495 24.9961Z" fill="#D2ECB3"/>
<path d="M22.3065 16.2268H4.76803C4.2784 16.2268 3.80882 16.4213 3.4626 16.7675C3.11638 17.1138 2.92188 17.5833 2.92188 18.073V21.3037C2.92188 20.8141 3.11638 20.3445 3.4626 19.9983C3.80882 19.6521 4.2784 19.4576 4.76803 19.4576H22.3065C22.7962 19.4576 23.2657 19.6521 23.612 19.9983C23.9582 20.3445 24.1527 20.8141 24.1527 21.3037V18.073C24.1527 17.5833 23.9582 17.1138 23.612 16.7675C23.2657 16.4213 22.7962 16.2268 22.3065 16.2268Z" fill="#EDF7E1"/>
<path d="M3.84495 24.9961L4.52711 29.4268C4.59335 29.8634 4.81388 30.2618 5.1487 30.5497C5.48352 30.8376 5.91045 30.996 6.35204 30.9961H20.7225C21.1641 30.996 21.591 30.8376 21.9259 30.5497C22.2607 30.2618 22.4812 29.8634 22.5475 29.4268L23.2296 24.9961C23.4744 24.9961 23.7092 24.8988 23.8823 24.7257C24.0554 24.5526 24.1527 24.3178 24.1527 24.073V18.073C24.1527 17.5833 23.9582 17.1138 23.612 16.7675C23.2657 16.4213 22.7962 16.2268 22.3065 16.2268H4.76803C4.2784 16.2268 3.80882 16.4213 3.4626 16.7675C3.11638 17.1138 2.92188 17.5833 2.92188 18.073V24.073C2.92188 24.3178 3.01913 24.5526 3.19224 24.7257C3.36535 24.8988 3.60014 24.9961 3.84495 24.9961Z" stroke="#007AC9" stroke-width="1.03057" stroke-linecap="round" stroke-linejoin="round"/>
<path d="M17.692 16.2267H9.38428V15.3037C9.38428 14.5692 9.67603 13.8648 10.1954 13.3455C10.7147 12.8262 11.4191 12.5344 12.1535 12.5344H14.9228C15.6572 12.5344 16.3616 12.8262 16.8809 13.3455C17.4002 13.8648 17.692 14.5692 17.692 15.3037V16.2267Z" stroke="#007AC9" stroke-width="1.03057" stroke-linecap="round" stroke-linejoin="round"/>
<path d="M3.84424 24.9961H11.6904" stroke="#007AC9" stroke-width="1.03057" stroke-linecap="round" stroke-linejoin="round"/>
<path d="M15.3833 24.9961H23.2295" stroke="#007AC9" stroke-width="1.03057" stroke-linecap="round" stroke-linejoin="round"/>
<path d="M13.5381 27.3036C14.5577 27.3036 15.3842 26.2704 15.3842 24.9959C15.3842 23.7214 14.5577 22.6882 13.5381 22.6882C12.5184 22.6882 11.6919 23.7214 11.6919 24.9959C11.6919 26.2704 12.5184 27.3036 13.5381 27.3036Z" fill="#EDF7E1"/>
<path d="M13.5366 25.3919C13.1522 25.3662 12.785 25.2227 12.4851 24.9809C12.1851 24.7391 11.967 24.4107 11.8603 24.0405C11.7482 24.3466 11.6908 24.67 11.6904 24.9959C11.6362 25.5454 11.7989 26.0944 12.1438 26.5255C12.4887 26.9567 12.9886 27.2359 13.5366 27.3036C14.0846 27.2359 14.5844 26.9567 14.9294 26.5255C15.2743 26.0944 15.437 25.5454 15.3827 24.9959C15.3824 24.67 15.3249 24.3466 15.2129 24.0405C15.1062 24.4107 14.888 24.7391 14.5881 24.9809C14.2882 25.2227 13.921 25.3662 13.5366 25.3919Z" fill="#D2ECB3"/>
<path d="M13.5381 27.3036C14.5577 27.3036 15.3842 26.2704 15.3842 24.9959C15.3842 23.7214 14.5577 22.6882 13.5381 22.6882C12.5184 22.6882 11.6919 23.7214 11.6919 24.9959C11.6919 26.2704 12.5184 27.3036 13.5381 27.3036Z" stroke="#007AC9" stroke-width="1.03057" stroke-linecap="round" stroke-linejoin="round"/>
</g>
<defs>
<clipPath id="clip0_2749_20381">
<rect width="22.1539" height="22.1539" fill="white" transform="translate(2.46191 10.6882)"/>
</clipPath>
</defs>
</svg>
