<svg width="28" height="33" viewBox="0 0 28 33" fill="none" xmlns="http://www.w3.org/2000/svg">
<path d="M13.5385 27.919C21.0155 27.919 27.0769 21.8576 27.0769 14.3805C27.0769 6.90342 21.0155 0.842041 13.5385 0.842041C6.06138 0.842041 0 6.90342 0 14.3805C0 21.8576 6.06138 27.919 13.5385 27.919Z" fill="#E5F2FA"/>
<g clip-path="url(#clip0_2749_20399)">
<path d="M18.1547 13.4581V28.8181C18.1547 29.5058 17.9921 30.1837 17.68 30.7965C17.368 31.4094 16.9155 31.9397 16.3594 32.3442L16.3086 32.3812H4.30859L4.41013 32.3073C4.95048 31.9142 5.39021 31.3988 5.69341 30.8033C5.99661 30.2078 6.15469 29.5491 6.15475 28.8809V13.4581C6.15475 12.846 6.39788 12.2591 6.83066 11.8263C7.26343 11.3935 7.8504 11.1504 8.46244 11.1504H20.4624C19.8504 11.1504 19.2634 11.3935 18.8307 11.8263C18.3979 12.2591 18.1547 12.846 18.1547 13.4581Z" fill="#EDF7E1"/>
<path d="M19.4 11.1504H8.46248C7.85044 11.1504 7.26347 11.3935 6.83069 11.8263C6.39792 12.2591 6.15479 12.846 6.15479 13.4581V24.3965L19.4 11.1504Z" fill="white"/>
<path d="M18.1547 13.4581V28.8181C18.1547 29.5058 17.9921 30.1837 17.68 30.7965C17.368 31.4094 16.9155 31.9397 16.3594 32.3442L16.3086 32.3812H4.30859L4.41013 32.3073C4.95048 31.9142 5.39021 31.3988 5.69341 30.8033C5.99661 30.2078 6.15469 29.5491 6.15475 28.8809V13.4581C6.15475 12.846 6.39788 12.2591 6.83066 11.8263C7.26343 11.3935 7.8504 11.1504 8.46244 11.1504H20.4624C19.8504 11.1504 19.2634 11.3935 18.8307 11.8263C18.3979 12.2591 18.1547 12.846 18.1547 13.4581Z" stroke="#007AC9" stroke-width="0.922091" stroke-linecap="round" stroke-linejoin="round"/>
<path d="M22.7697 13.4575V16.6883C22.7697 16.9331 22.6725 17.1679 22.4994 17.341C22.3263 17.5141 22.0915 17.6113 21.8467 17.6113H18.1543V13.5867C18.1419 12.9991 18.3456 12.4273 18.7267 11.9798C19.1078 11.5323 19.6399 11.2403 20.222 11.159C20.3018 11.1513 20.3819 11.1483 20.462 11.1498C20.7651 11.1498 21.0652 11.2095 21.3452 11.3255C21.6251 11.4414 21.8795 11.6114 22.0938 11.8257C22.3081 12.04 22.4781 12.2944 22.5941 12.5744C22.71 12.8544 22.7697 13.1544 22.7697 13.4575Z" fill="#D2ECB3" stroke="#007AC9" stroke-width="0.922091" stroke-linecap="round" stroke-linejoin="round"/>
<path d="M8.46289 14.8416H10.7706" stroke="#007AC9" stroke-width="0.922091" stroke-linecap="round" stroke-linejoin="round"/>
<path d="M10.3096 17.6111H15.3865" stroke="#007AC9" stroke-width="0.922091" stroke-linecap="round" stroke-linejoin="round"/>
<path d="M8.46289 20.3809H15.386" stroke="#007AC9" stroke-width="0.922091" stroke-linecap="round" stroke-linejoin="round"/>
<path d="M8.46289 23.1499H15.386" stroke="#007AC9" stroke-width="0.922091" stroke-linecap="round" stroke-linejoin="round"/>
<path d="M8.46289 25.9187H12.6167" stroke="#007AC9" stroke-width="0.922091" stroke-linecap="round" stroke-linejoin="round"/>
<path d="M8.46289 25.9187H15.386" stroke="#007AC9" stroke-width="0.922091" stroke-linecap="round" stroke-linejoin="round"/>
<path d="M8.46289 28.6882H12.6167" stroke="#007AC9" stroke-width="0.922091" stroke-linecap="round" stroke-linejoin="round"/>
</g>
<defs>
<clipPath id="clip0_2749_20399">
<rect width="22.1538" height="22.1538" fill="white" transform="translate(2.46191 10.6882)"/>
</clipPath>
</defs>
</svg>
