<svg width="28" height="33" viewBox="0 0 28 33" fill="none" xmlns="http://www.w3.org/2000/svg">
<path d="M13.5529 27.9479C21.038 27.9479 27.1059 21.8801 27.1059 14.395C27.1059 6.9099 21.038 0.842041 13.5529 0.842041C6.06786 0.842041 0 6.9099 0 14.395C0 21.8801 6.06786 27.9479 13.5529 27.9479Z" fill="#E5F2FA"/>
<g clip-path="url(#clip0_2749_20419)">
<g clip-path="url(#clip1_2749_20419)">
<path d="M17.075 11.0935H10.5966C9.57432 11.0935 8.74561 11.9222 8.74561 12.9445V30.5288C8.74561 31.5511 9.57432 32.3798 10.5966 32.3798H17.075C18.0973 32.3798 18.926 31.5511 18.926 30.5288V12.9445C18.926 11.9222 18.0973 11.0935 17.075 11.0935Z" fill="#D2ECB3"/>
<path d="M17.075 11.0935H10.5966C10.1057 11.0935 9.63487 11.2885 9.28774 11.6356C8.94062 11.9828 8.74561 12.4536 8.74561 12.9445V15.721C8.74561 15.23 8.94062 14.7592 9.28774 14.4121C9.63487 14.065 10.1057 13.87 10.5966 13.87H17.075C17.5659 13.87 18.0367 14.065 18.3839 14.4121C18.731 14.7592 18.926 15.23 18.926 15.721V12.9445C18.926 12.4536 18.731 11.9828 18.3839 11.6356C18.0367 11.2885 17.5659 11.0935 17.075 11.0935Z" fill="#EDF7E1"/>
<path d="M8.74452 12.9448H5.23413C5.14257 12.9448 5.05307 12.972 4.97696 13.0229C4.90085 13.0738 4.84156 13.1462 4.80658 13.2308C4.7716 13.3154 4.76251 13.4085 4.78047 13.4983C4.79842 13.5881 4.84261 13.6705 4.90743 13.7352L8.74452 17.5723" fill="#D2ECB3"/>
<path d="M8.74452 12.9448H5.23413C5.14257 12.9448 5.05307 12.972 4.97696 13.0229C4.90085 13.0738 4.84156 13.1462 4.80658 13.2308C4.7716 13.3154 4.76251 13.4085 4.78047 13.4983C4.79842 13.5881 4.84261 13.6705 4.90743 13.7352L8.74452 17.5723" stroke="#007AC9" stroke-width="0.92549" stroke-linecap="round" stroke-linejoin="round"/>
<path d="M8.74452 19.4226H5.23413C5.14257 19.4226 5.05307 19.4498 4.97696 19.5007C4.90085 19.5516 4.84156 19.624 4.80658 19.7086C4.7716 19.7932 4.76251 19.8863 4.78047 19.9761C4.79842 20.0659 4.84261 20.1483 4.90743 20.213L8.74452 24.0501" fill="#D2ECB3"/>
<path d="M8.74452 19.4226H5.23413C5.14257 19.4226 5.05307 19.4498 4.97696 19.5007C4.90085 19.5516 4.84156 19.624 4.80658 19.7086C4.7716 19.7932 4.76251 19.8863 4.78047 19.9761C4.79842 20.0659 4.84261 20.1483 4.90743 20.213L8.74452 24.0501" stroke="#007AC9" stroke-width="0.92549" stroke-linecap="round" stroke-linejoin="round"/>
<path d="M8.74452 25.9009H5.23413C5.14257 25.9009 5.05307 25.9281 4.97696 25.979C4.90085 26.0299 4.84156 26.1022 4.80658 26.1869C4.7716 26.2715 4.76251 26.3646 4.78047 26.4544C4.79842 26.5441 4.84261 26.6266 4.90743 26.6912L8.74452 30.5283" fill="#D2ECB3"/>
<path d="M8.74452 25.9009H5.23413C5.14257 25.9009 5.05307 25.9281 4.97696 25.979C4.90085 26.0299 4.84156 26.1022 4.80658 26.1869C4.7716 26.2715 4.76251 26.3646 4.78047 26.4544C4.79842 26.5441 4.84261 26.6266 4.90743 26.6912L8.74452 30.5283" stroke="#007AC9" stroke-width="0.92549" stroke-linecap="round" stroke-linejoin="round"/>
<path d="M18.9253 12.9448H22.4357C22.5272 12.9448 22.6167 12.972 22.6928 13.0229C22.769 13.0738 22.8283 13.1462 22.8632 13.2308C22.8982 13.3154 22.9073 13.4085 22.8893 13.4983C22.8714 13.5881 22.8272 13.6705 22.7624 13.7352L18.9253 17.5723" fill="#D2ECB3"/>
<path d="M18.9253 12.9448H22.4357C22.5272 12.9448 22.6167 12.972 22.6928 13.0229C22.769 13.0738 22.8283 13.1462 22.8632 13.2308C22.8982 13.3154 22.9073 13.4085 22.8893 13.4983C22.8714 13.5881 22.8272 13.6705 22.7624 13.7352L18.9253 17.5723" stroke="#007AC9" stroke-width="0.92549" stroke-linecap="round" stroke-linejoin="round"/>
<path d="M18.9253 19.4226H22.4357C22.5272 19.4226 22.6167 19.4498 22.6928 19.5007C22.769 19.5516 22.8283 19.624 22.8632 19.7086C22.8982 19.7932 22.9073 19.8863 22.8893 19.9761C22.8714 20.0659 22.8272 20.1483 22.7624 20.213L18.9253 24.0501" fill="#D2ECB3"/>
<path d="M18.9253 19.4226H22.4357C22.5272 19.4226 22.6167 19.4498 22.6928 19.5007C22.769 19.5516 22.8283 19.624 22.8632 19.7086C22.8982 19.7932 22.9073 19.8863 22.8893 19.9761C22.8714 20.0659 22.8272 20.1483 22.7624 20.213L18.9253 24.0501" stroke="#007AC9" stroke-width="0.92549" stroke-linecap="round" stroke-linejoin="round"/>
<path d="M18.9253 25.9009H22.4357C22.5272 25.9009 22.6167 25.9281 22.6928 25.979C22.769 26.0299 22.8283 26.1022 22.8632 26.1869C22.8982 26.2715 22.9073 26.3646 22.8893 26.4544C22.8714 26.5441 22.8272 26.6266 22.7624 26.6912L18.9253 30.5283" fill="#D2ECB3"/>
<path d="M18.9253 25.9009H22.4357C22.5272 25.9009 22.6167 25.9281 22.6928 25.979C22.769 26.0299 22.8283 26.1022 22.8632 26.1869C22.8982 26.2715 22.9073 26.3646 22.8893 26.4544C22.8714 26.5441 22.8272 26.6266 22.7624 26.6912L18.9253 30.5283" stroke="#007AC9" stroke-width="0.92549" stroke-linecap="round" stroke-linejoin="round"/>
<path d="M17.075 11.0935H10.5966C9.57432 11.0935 8.74561 11.9222 8.74561 12.9445V30.5288C8.74561 31.5511 9.57432 32.3798 10.5966 32.3798H17.075C18.0973 32.3798 18.926 31.5511 18.926 30.5288V12.9445C18.926 11.9222 18.0973 11.0935 17.075 11.0935Z" stroke="#007AC9" stroke-width="0.92549" stroke-linecap="round" stroke-linejoin="round"/>
<path d="M13.8357 30.5283C15.1135 30.5283 16.1494 29.4924 16.1494 28.2146C16.1494 26.9368 15.1135 25.9009 13.8357 25.9009C12.5579 25.9009 11.522 26.9368 11.522 28.2146C11.522 29.4924 12.5579 30.5283 13.8357 30.5283Z" fill="#D2ECB3"/>
<path d="M12.1997 29.8512C11.7658 29.4172 11.522 28.8286 11.522 28.2149C11.522 27.6012 11.7658 27.0126 12.1997 26.5786C12.6337 26.1447 13.2223 25.9009 13.836 25.9009C14.4497 25.9009 15.0383 26.1447 15.4723 26.5786L12.1997 29.8512Z" fill="#EDF7E1"/>
<path d="M13.8357 24.0501C15.1135 24.0501 16.1494 23.0142 16.1494 21.7363C16.1494 20.4585 15.1135 19.4226 13.8357 19.4226C12.5579 19.4226 11.522 20.4585 11.522 21.7363C11.522 23.0142 12.5579 24.0501 13.8357 24.0501Z" fill="#D2ECB3"/>
<path d="M12.1997 23.3729C11.7658 22.9389 11.522 22.3504 11.522 21.7366C11.522 21.1229 11.7658 20.5343 12.1997 20.1004C12.6337 19.6664 13.2223 19.4226 13.836 19.4226C14.4497 19.4226 15.0383 19.6664 15.4723 20.1004L12.1997 23.3729Z" fill="#EDF7E1"/>
<path d="M13.8357 17.5723C15.1135 17.5723 16.1494 16.5364 16.1494 15.2585C16.1494 13.9807 15.1135 12.9448 13.8357 12.9448C12.5579 12.9448 11.522 13.9807 11.522 15.2585C11.522 16.5364 12.5579 17.5723 13.8357 17.5723Z" fill="#D2ECB3"/>
<path d="M12.1997 16.8951C11.7658 16.4612 11.522 15.8726 11.522 15.2589C11.522 14.6451 11.7658 14.0566 12.1997 13.6226C12.6337 13.1886 13.2223 12.9448 13.836 12.9448C14.4497 12.9448 15.0383 13.1886 15.4723 13.6226L12.1997 16.8951Z" fill="#EDF7E1"/>
<path d="M13.8357 24.0501C15.1135 24.0501 16.1494 23.0142 16.1494 21.7363C16.1494 20.4585 15.1135 19.4226 13.8357 19.4226C12.5579 19.4226 11.522 20.4585 11.522 21.7363C11.522 23.0142 12.5579 24.0501 13.8357 24.0501Z" stroke="#007AC9" stroke-width="0.92549" stroke-linecap="round" stroke-linejoin="round"/>
<path d="M13.8357 30.5283C15.1135 30.5283 16.1494 29.4924 16.1494 28.2146C16.1494 26.9368 15.1135 25.9009 13.8357 25.9009C12.5579 25.9009 11.522 26.9368 11.522 28.2146C11.522 29.4924 12.5579 30.5283 13.8357 30.5283Z" stroke="#007AC9" stroke-width="0.92549" stroke-linecap="round" stroke-linejoin="round"/>
<path d="M13.8357 17.5723C15.1135 17.5723 16.1494 16.5364 16.1494 15.2585C16.1494 13.9807 15.1135 12.9448 13.8357 12.9448C12.5579 12.9448 11.522 13.9807 11.522 15.2585C11.522 16.5364 12.5579 17.5723 13.8357 17.5723Z" stroke="#007AC9" stroke-width="0.92549" stroke-linecap="round" stroke-linejoin="round"/>
</g>
</g>
<defs>
<clipPath id="clip0_2749_20419">
<rect width="22.2118" height="22.2118" fill="white" transform="translate(2.63525 10.6304)"/>
</clipPath>
<clipPath id="clip1_2749_20419">
<rect width="22.2118" height="22.2118" fill="white" transform="translate(2.72949 10.6306)"/>
</clipPath>
</defs>
</svg>
