<svg width="28" height="33" viewBox="0 0 28 33" fill="none" xmlns="http://www.w3.org/2000/svg">
<path d="M13.5385 27.919C21.0155 27.919 27.0769 21.8576 27.0769 14.3805C27.0769 6.90342 21.0155 0.842041 13.5385 0.842041C6.06138 0.842041 0 6.90342 0 14.3805C0 21.8576 6.06138 27.919 13.5385 27.919Z" fill="#E5F2FA"/>
<g clip-path="url(#clip0_2749_20297)">
<path d="M22.308 24.5344V12.5344C22.308 12.2896 22.2107 12.0548 22.0376 11.8817C21.8645 11.7086 21.6297 11.6113 21.3849 11.6113H5.69261C5.44779 11.6113 5.213 11.7086 5.03989 11.8817C4.86678 12.0548 4.76953 12.2896 4.76953 12.5344V24.5344H22.308Z" fill="#D2ECB3"/>
<path d="M4.76953 12.5344V24.5344H7.27845L20.2015 11.6113H5.69261C5.44779 11.6113 5.213 11.7086 5.03989 11.8817C4.86678 12.0548 4.76953 12.2896 4.76953 12.5344Z" fill="#EDF7E1"/>
<path d="M22.308 23.1498V12.5344C22.308 12.2896 22.2107 12.0548 22.0376 11.8817C21.8645 11.7086 21.6297 11.6113 21.3849 11.6113H5.69261C5.44779 11.6113 5.213 11.7086 5.03989 11.8817C4.86678 12.0548 4.76953 12.2896 4.76953 12.5344V23.1498" stroke="#007AC9" stroke-width="0.932939" stroke-linecap="round" stroke-linejoin="round"/>
<path d="M23.2305 26.3806H3.84593C3.60111 26.3806 3.36633 26.2833 3.19321 26.1102C3.0201 25.9371 2.92285 25.7023 2.92285 25.4575V24.996C2.92285 24.8736 2.97148 24.7562 3.05803 24.6696C3.14459 24.583 3.26198 24.5344 3.38439 24.5344H23.6921C23.8145 24.5344 23.9319 24.583 24.0184 24.6696C24.105 24.7562 24.1536 24.8736 24.1536 24.996V25.4575C24.1536 25.7023 24.0564 25.9371 23.8833 26.1102C23.7101 26.2833 23.4754 26.3806 23.2305 26.3806Z" fill="#D2ECB3" stroke="#007AC9" stroke-width="0.932939" stroke-linecap="round" stroke-linejoin="round"/>
<path d="M4.76953 26.3801V31.9186" stroke="#007AC9" stroke-width="0.932939" stroke-linecap="round" stroke-linejoin="round"/>
<path d="M22.3081 26.3801V31.9186" stroke="#007AC9" stroke-width="0.932939" stroke-linecap="round" stroke-linejoin="round"/>
<path d="M4.76953 30.0725H22.308" stroke="#007AC9" stroke-width="0.932939" stroke-linecap="round" stroke-linejoin="round"/>
<path d="M12.1538 18.073H15.8461" stroke="#007AC9" stroke-width="0.932939" stroke-linecap="round" stroke-linejoin="round"/>
<path d="M13.999 16.2263V19.9186" stroke="#007AC9" stroke-width="0.932939" stroke-linecap="round" stroke-linejoin="round"/>
<path d="M16.7695 20.842H20.4618" stroke="#007AC9" stroke-width="0.932939" stroke-linecap="round" stroke-linejoin="round"/>
<path d="M16.7695 16.6883L17.9908 15.4671C18.0424 15.4152 18.1038 15.374 18.1715 15.3459C18.2391 15.3179 18.3117 15.3035 18.3849 15.3037C18.4461 15.3037 18.5048 15.328 18.5481 15.3713C18.5914 15.4146 18.6157 15.4733 18.6157 15.5345V20.8422" stroke="#007AC9" stroke-width="0.932939" stroke-linecap="round" stroke-linejoin="round"/>
<path d="M6.61572 17.1499C6.61572 16.8352 6.69616 16.5257 6.84941 16.2509C7.00265 15.976 7.22361 15.7449 7.4913 15.5794C7.75899 15.414 8.06452 15.3197 8.3789 15.3056C8.69327 15.2914 9.00604 15.3579 9.2875 15.4986C9.56897 15.6393 9.80979 15.8497 9.9871 16.1097C10.1644 16.3697 10.2723 16.6707 10.3006 16.9841C10.3288 17.2975 10.2765 17.6129 10.1486 17.9004C10.0206 18.1879 9.82132 18.438 9.56957 18.6268L6.61572 20.8422H10.308" stroke="#007AC9" stroke-width="0.932939" stroke-linecap="round" stroke-linejoin="round"/>
</g>
<defs>
<clipPath id="clip0_2749_20297">
<rect width="22.1538" height="22.1538" fill="white" transform="translate(2.46143 10.6882)"/>
</clipPath>
</defs>
</svg>
