<svg width="48" height="48" viewBox="0 0 48 48" fill="none" xmlns="http://www.w3.org/2000/svg">
<g clip-path="url(#clip0_3029_31843)">
<rect width="48" height="48" rx="24" fill="#E5F2FA"/>
<path fill-rule="evenodd" clip-rule="evenodd" d="M20.9285 13.5802L25.894 13.5802C26.1452 13.5802 26.3862 13.68 26.5638 13.8577L32.2481 19.5419C32.4257 19.7196 32.5255 19.9605 32.5255 20.2118V28.9667C32.5255 29.7293 32.5256 30.3587 32.4837 30.8714C32.4402 31.4039 32.3468 31.8934 32.1125 32.3532C31.7492 33.0663 31.1695 33.646 30.4564 34.0093C29.9967 34.2436 29.5071 34.3369 28.9746 34.3804C28.4619 34.4223 27.8325 34.4223 27.0699 34.4223H20.9285C20.1659 34.4223 19.5365 34.4223 19.0238 34.3804C18.4913 34.3369 18.0018 34.2436 17.542 34.0093C16.829 33.646 16.2492 33.0663 15.8859 32.3532C15.6517 31.8934 15.5583 31.4039 15.5148 30.8714C15.4729 30.3587 15.4729 29.7293 15.4729 28.9667V19.0358C15.4729 18.2732 15.4729 17.6438 15.5148 17.1311C15.5583 16.5986 15.6517 16.1091 15.8859 15.6493C16.2492 14.9363 16.829 14.3565 17.542 13.9932C18.0018 13.759 18.4913 13.6656 19.0238 13.6221C19.5365 13.5802 20.1659 13.5802 20.9285 13.5802ZM19.1781 15.5105C18.7628 15.5444 18.5504 15.606 18.4022 15.6815C18.0457 15.8631 17.7558 16.153 17.5742 16.5095C17.4987 16.6577 17.4371 16.8701 17.4032 17.2854C17.3684 17.7118 17.3676 18.2634 17.3676 19.0749V28.9276C17.3676 29.7391 17.3684 30.2907 17.4032 30.7171C17.4371 31.1325 17.4987 31.3449 17.5742 31.493C17.7558 31.8495 18.0457 32.1394 18.4022 32.3211C18.5504 32.3965 18.7628 32.4581 19.1781 32.492C19.6045 32.5268 20.1561 32.5276 20.9676 32.5276H27.0308C27.8423 32.5276 28.3939 32.5268 28.8203 32.492C29.2357 32.4581 29.4481 32.3965 29.5963 32.3211C29.9528 32.1394 30.2426 31.8495 30.4243 31.493C30.4998 31.3449 30.5613 31.1325 30.5952 30.7171C30.6301 30.2907 30.6308 29.7391 30.6308 28.9276V21.1592L27.3795 21.1592C27.1404 21.1592 26.9076 21.1593 26.7104 21.1432C26.4938 21.1255 26.2383 21.0837 25.9811 20.9527C25.6246 20.771 25.3348 20.4812 25.1531 20.1247C25.0221 19.8675 24.9803 19.612 24.9626 19.3954C24.9465 19.1982 24.9466 18.9654 24.9466 18.7263L24.9466 15.4749H20.9676C20.1561 15.4749 19.6045 15.4757 19.1781 15.5105ZM26.8413 16.8147L29.2911 19.2645H27.4097C27.1288 19.2645 26.9751 19.2637 26.8647 19.2547C26.8603 19.2544 26.8561 19.254 26.8522 19.2536C26.8518 19.2497 26.8514 19.2455 26.8511 19.2411C26.8421 19.1307 26.8413 18.977 26.8413 18.6961V16.8147ZM19.2624 21.1591C19.2624 20.6359 19.6865 20.2118 20.2097 20.2118H22.1045C22.6277 20.2118 23.0518 20.6359 23.0518 21.1591C23.0518 21.6824 22.6277 22.1065 22.1045 22.1065H20.2097C19.6865 22.1065 19.2624 21.6824 19.2624 21.1591ZM19.2624 24.9486C19.2624 24.4254 19.6865 24.0013 20.2097 24.0013H27.7887C28.3119 24.0013 28.7361 24.4254 28.7361 24.9486C28.7361 25.4718 28.3119 25.896 27.7887 25.896H20.2097C19.6865 25.896 19.2624 25.4718 19.2624 24.9486ZM19.2624 28.7381C19.2624 28.2149 19.6865 27.7907 20.2097 27.7907H27.7887C28.3119 27.7907 28.7361 28.2149 28.7361 28.7381C28.7361 29.2613 28.3119 29.6855 27.7887 29.6855H20.2097C19.6865 29.6855 19.2624 29.2613 19.2624 28.7381Z" fill="#007AC9"/>
</g>
<defs>
<clipPath id="clip0_3029_31843">
<rect width="48" height="48" rx="24" fill="white"/>
</clipPath>
</defs>
</svg>
