<svg width="28" height="33" viewBox="0 0 28 33" fill="none" xmlns="http://www.w3.org/2000/svg">
<path d="M13.5385 27.919C21.0155 27.919 27.0769 21.8576 27.0769 14.3805C27.0769 6.90342 21.0155 0.842041 13.5385 0.842041C6.06138 0.842041 0 6.90342 0 14.3805C0 21.8576 6.06138 27.919 13.5385 27.919Z" fill="#E5F2FA"/>
<g clip-path="url(#clip0_2749_20332)">
<path d="M18.6156 18.2997V12.0726C18.6166 11.9213 18.5801 11.7722 18.5095 11.6385C18.4388 11.5047 18.3362 11.3905 18.2108 11.306C18.0854 11.2215 17.941 11.1693 17.7905 11.1541C17.64 11.1388 17.4881 11.1611 17.3483 11.2187C14.1766 12.5037 7.36242 12.5046 4.19072 11.2187C4.05084 11.1625 3.89931 11.1414 3.74939 11.1572C3.59946 11.1731 3.45569 11.2254 3.33066 11.3096C3.20562 11.3939 3.10312 11.5075 3.03212 11.6405C2.96111 11.7735 2.92377 11.9218 2.92334 12.0726V18.2997C2.92334 23.3766 8.92334 27.5304 10.7695 27.5304C12.6156 27.5304 18.6156 23.3747 18.6156 18.2997Z" fill="#EDF7E1"/>
<path d="M18.6147 15.2812C14.8467 15.5313 10.6365 15.1603 8.18392 14.167C8.01164 14.0967 7.82471 14.0699 7.63962 14.089C7.45452 14.108 7.27696 14.1723 7.12261 14.2762C6.96825 14.3801 6.84185 14.5204 6.75456 14.6848C6.66726 14.8491 6.62176 15.0324 6.62207 15.2184V22.9067C6.63214 23.8409 6.79426 24.7672 7.10207 25.6492C8.12725 26.6027 9.39619 27.2541 10.7685 27.5313C12.6147 27.5313 18.6147 23.3775 18.6147 18.3006V15.2812Z" fill="#D2ECB3"/>
<path d="M24.1552 23.1495V16.9206C24.1558 16.7695 24.1191 16.6206 24.0484 16.4871C23.9776 16.3536 23.875 16.2396 23.7496 16.1553C23.6242 16.071 23.4799 16.019 23.3296 16.0039C23.1792 15.9887 23.0275 16.011 22.8878 16.0686C19.7161 17.3535 12.902 17.3544 9.73028 16.0686C9.59046 16.0124 9.43902 15.9913 9.28916 16.0071C9.13931 16.0229 8.9956 16.0751 8.87059 16.1592C8.74558 16.2434 8.64306 16.3568 8.57199 16.4897C8.50092 16.6226 8.46347 16.7708 8.46289 16.9215V23.1495C8.46289 28.2264 14.4629 32.3803 16.309 32.3803C18.1552 32.3803 24.1552 28.2264 24.1552 23.1495Z" fill="#D2ECB3"/>
<path d="M16.309 17.0332C14.0767 17.0974 11.8504 16.7713 9.73028 16.0696C9.59054 16.0134 9.43917 15.9922 9.28939 16.008C9.13961 16.0237 8.99596 16.0759 8.87097 16.1599C8.74598 16.244 8.64345 16.3573 8.57232 16.4901C8.50118 16.6228 8.46362 16.7709 8.46289 16.9216V23.1496C8.46289 28.2265 14.4629 32.3803 16.309 32.3803V17.0332Z" fill="#EDF7E1"/>
<path d="M24.1552 23.1495V16.9206C24.1558 16.7695 24.1191 16.6206 24.0484 16.4871C23.9776 16.3536 23.875 16.2396 23.7496 16.1553C23.6242 16.071 23.4799 16.019 23.3296 16.0039C23.1792 15.9887 23.0275 16.011 22.8878 16.0686C19.7161 17.3535 12.902 17.3544 9.73028 16.0686C9.59046 16.0124 9.43902 15.9913 9.28916 16.0071C9.13931 16.0229 8.9956 16.0751 8.87059 16.1592C8.74558 16.2434 8.64306 16.3568 8.57199 16.4897C8.50092 16.6226 8.46347 16.7708 8.46289 16.9215V23.1495C8.46289 28.2264 14.4629 32.3803 16.309 32.3803C18.1552 32.3803 24.1552 28.2264 24.1552 23.1495Z" stroke="#007AC9" stroke-width="0.922091" stroke-linecap="round" stroke-linejoin="round"/>
<path d="M18.6156 15.0938V12.0726C18.6166 11.9213 18.5801 11.7722 18.5095 11.6385C18.4388 11.5047 18.3362 11.3905 18.2108 11.306C18.0854 11.2215 17.941 11.1693 17.7905 11.1541C17.64 11.1388 17.4881 11.1611 17.3483 11.2187C14.1766 12.5037 7.36242 12.5046 4.19072 11.2187C4.05084 11.1625 3.89931 11.1414 3.74939 11.1572C3.59946 11.1731 3.45569 11.2254 3.33066 11.3096C3.20562 11.3939 3.10312 11.5075 3.03212 11.6405C2.96111 11.7735 2.92377 11.9218 2.92334 12.0726V18.2997C2.92334 21.2249 4.91719 23.8455 6.95996 25.5403" stroke="#007AC9" stroke-width="0.922091" stroke-linecap="round" stroke-linejoin="round"/>
<path d="M19.078 25.9189C19.078 26.6534 18.7863 27.3578 18.2669 27.8771C17.7476 28.3964 17.0432 28.6882 16.3088 28.6882C15.5743 28.6882 14.87 28.3964 14.3506 27.8771C13.8313 27.3578 13.5396 26.6534 13.5396 25.9189" stroke="#007AC9" stroke-width="0.922091" stroke-linecap="round" stroke-linejoin="round"/>
<path d="M18.1538 21.7652C18.1538 21.398 18.2997 21.0458 18.5594 20.7862C18.819 20.5265 19.1712 20.3806 19.5384 20.3806C19.9056 20.3806 20.2578 20.5265 20.5175 20.7862C20.7772 21.0458 20.923 21.398 20.923 21.7652" stroke="#007AC9" stroke-width="0.922091" stroke-linecap="round" stroke-linejoin="round"/>
<path d="M11.6934 21.7652C11.6934 21.398 11.8392 21.0458 12.0989 20.7862C12.3586 20.5265 12.7108 20.3806 13.078 20.3806C13.4452 20.3806 13.7974 20.5265 14.057 20.7862C14.3167 21.0458 14.4626 21.398 14.4626 21.7652" stroke="#007AC9" stroke-width="0.922091" stroke-linecap="round" stroke-linejoin="round"/>
</g>
<defs>
<clipPath id="clip0_2749_20332">
<rect width="22.1538" height="22.1538" fill="white" transform="translate(2.46191 10.6882)"/>
</clipPath>
</defs>
</svg>
