<svg width="24" height="24" viewBox="0 0 24 24" fill="none" xmlns="http://www.w3.org/2000/svg">
<g id="tag-01">
<path id="Icon (Stroke)" fill-rule="evenodd" clip-rule="evenodd" d="M10.4051 3.02773C10.3168 3.00653 10.2114 3.0001 9.67462 3.0001H5.2001C4.62355 3.0001 4.25128 3.00088 3.96794 3.02403C3.69628 3.04623 3.59556 3.0839 3.54611 3.1091C3.35795 3.20497 3.20497 3.35795 3.1091 3.54611C3.0839 3.59556 3.04623 3.69627 3.02403 3.96794C3.00088 4.25127 3.0001 4.62355 3.0001 5.2001L3.0001 9.67462C3.0001 10.2114 3.00653 10.3168 3.02773 10.4051C3.05223 10.5072 3.09263 10.6047 3.14746 10.6942C3.19492 10.7716 3.26491 10.8507 3.64447 11.2303L11.3131 18.8989C11.9188 19.5046 12.3311 19.9158 12.6753 20.208C13.0107 20.4927 13.2151 20.6053 13.3821 20.6596C13.7838 20.7901 14.2164 20.7901 14.6181 20.6596C14.7851 20.6053 14.9895 20.4927 15.3249 20.208C15.6691 19.9158 16.0814 19.5046 16.6871 18.8989L18.8989 16.6871C19.5046 16.0814 19.9158 15.6691 20.208 15.3249C20.4927 14.9895 20.6053 14.7851 20.6596 14.6181C20.7901 14.2164 20.7901 13.7838 20.6596 13.3821C20.6053 13.2151 20.4927 13.0107 20.208 12.6753C19.9158 12.3311 19.5046 11.9188 18.8989 11.3131L11.2303 3.64447C10.8507 3.26491 10.7716 3.19492 10.6942 3.14746C10.6047 3.09263 10.5072 3.05223 10.4051 3.02773ZM9.75792 1.00005C10.1648 0.999672 10.5236 0.999338 10.872 1.08299C11.1781 1.15648 11.4708 1.2777 11.7392 1.44218C12.0447 1.62942 12.2981 1.88333 12.5856 2.17131C12.6051 2.1908 12.6247 2.21046 12.6445 2.23025L20.3423 9.9281C20.9115 10.4973 21.3813 10.967 21.7327 11.381C22.0977 11.8109 22.3934 12.246 22.5617 12.764C22.8227 13.5674 22.8227 14.4328 22.5617 15.2362C22.3934 15.7542 22.0977 16.1893 21.7327 16.6192C21.3813 17.0332 20.9115 17.5029 20.3423 18.0721L18.0721 20.3423C17.5029 20.9115 17.0332 21.3813 16.6192 21.7327C16.1893 22.0977 15.7542 22.3934 15.2362 22.5617C14.4328 22.8227 13.5674 22.8227 12.764 22.5617C12.246 22.3934 11.8109 22.0977 11.381 21.7327C10.967 21.3813 10.4973 20.9115 9.92805 20.3423L2.23025 12.6445C2.21046 12.6247 2.19081 12.6051 2.17131 12.5856C1.88333 12.2981 1.62942 12.0447 1.44218 11.7392C1.2777 11.4708 1.15648 11.1781 1.08299 10.872C0.999338 10.5236 0.999672 10.1648 1.00005 9.75792C1.00008 9.73038 1.0001 9.70261 1.0001 9.67462L1.0001 5.16156C1.00008 4.63441 1.00007 4.17965 1.03067 3.80507C1.06297 3.40973 1.13429 3.01651 1.32708 2.63813C1.6147 2.07364 2.07364 1.6147 2.63813 1.32708C3.01651 1.13429 3.40973 1.06297 3.80507 1.03067C4.17965 1.00007 4.63441 1.00008 5.16156 1.0001L9.67462 1.0001C9.70261 1.0001 9.73038 1.00008 9.75792 1.00005ZM6.5001 8.0001C6.5001 7.17167 7.17168 6.5001 8.0001 6.5001C8.82853 6.5001 9.5001 7.17167 9.5001 8.0001C9.5001 8.82853 8.82853 9.5001 8.0001 9.5001C7.17168 9.5001 6.5001 8.82853 6.5001 8.0001Z" fill="black"/>
</g>
</svg>
