<svg width="48" height="48" viewBox="0 0 48 48" fill="none" xmlns="http://www.w3.org/2000/svg">
<rect width="48" height="48" rx="24" fill="#FFB3BA"/>
<g clip-path="url(#clip0_2864_79485)">
<path d="M25.3129 14.2747C25.1832 14.04 24.993 13.8444 24.7621 13.7081C24.5312 13.5719 24.268 13.5 23.9999 13.5C23.7317 13.5 23.4685 13.5719 23.2376 13.7081C23.0067 13.8444 22.8165 14.04 22.6869 14.2747L12.9368 32.2747C12.8108 32.5031 12.7464 32.7604 12.7502 33.0212C12.7539 33.282 12.8256 33.5374 12.9582 33.762C13.0907 33.9867 13.2796 34.1729 13.5061 34.3023C13.7326 34.4316 13.989 34.4997 14.2498 34.4997H33.7499C34.0107 34.4997 34.2671 34.4316 34.4936 34.3023C34.7201 34.1729 34.909 33.9867 35.0416 33.762C35.1741 33.5374 35.2458 33.282 35.2496 33.0212C35.2533 32.7604 35.1889 32.5031 35.0629 32.2747L25.3129 14.2747Z" stroke="#203950" stroke-width="1.35" stroke-linecap="round" stroke-linejoin="round"/>
<path d="M24 27V20.25" stroke="#203950" stroke-width="1.35" stroke-linecap="round" stroke-linejoin="round"/>
<path d="M24 30.75C23.7929 30.75 23.625 30.5821 23.625 30.375C23.625 30.1679 23.7929 30 24 30" stroke="#203950" stroke-width="1.35"/>
<path d="M24 30.75C24.2071 30.75 24.375 30.5821 24.375 30.375C24.375 30.1679 24.2071 30 24 30" stroke="#203950" stroke-width="1.35"/>
</g>
<defs>
<clipPath id="clip0_2864_79485">
<rect width="24" height="24" fill="white" transform="translate(12 12)"/>
</clipPath>
</defs>
</svg>
