<svg width="18" height="18" viewBox="0 0 18 18" fill="none" xmlns="http://www.w3.org/2000/svg">
<g id="volume-max">
<path id="Icon (Stroke)" fill-rule="evenodd" clip-rule="evenodd" d="M7.5 4.81061L5.38181 6.92881C5.37302 6.9376 5.36401 6.94665 5.35479 6.95592C5.25434 7.05691 5.12786 7.18407 4.97309 7.27891C4.83888 7.36115 4.69257 7.42176 4.53951 7.4585C4.36301 7.50088 4.18366 7.5004 4.04123 7.50002C4.02815 7.49998 4.01538 7.49995 4.00295 7.49995H2.7C2.47761 7.49995 2.35592 7.50053 2.26848 7.50768C2.265 7.50796 2.2617 7.50825 2.25859 7.50854C2.2583 7.51165 2.25802 7.51494 2.25773 7.51842C2.25059 7.60586 2.25 7.72755 2.25 7.94995V10.0499C2.25 10.2723 2.25059 10.394 2.25773 10.4815C2.25802 10.485 2.2583 10.4883 2.25859 10.4914C2.2617 10.4917 2.265 10.4919 2.26848 10.4922C2.35592 10.4994 2.47761 10.4999 2.7 10.4999H4.00295C4.01538 10.4999 4.02815 10.4999 4.04123 10.4999C4.18366 10.4995 4.36301 10.499 4.53951 10.5414C4.69257 10.5781 4.83888 10.6387 4.97309 10.721C5.12786 10.8158 5.25434 10.943 5.35479 11.044C5.36402 11.0533 5.37302 11.0623 5.38181 11.0711L7.5 13.1893V4.81061ZM7.78674 2.78375C8.14575 2.75549 8.49658 2.90081 8.73046 3.17465C8.93989 3.41986 8.97316 3.7148 8.98585 3.85797C9.00007 4.01845 9.00004 4.21777 9.00001 4.42055C9 4.42985 9 4.43916 9 4.44848L9.00001 13.5794C9.00004 13.7821 9.00007 13.9815 8.98585 14.1419C8.97316 14.2851 8.93989 14.58 8.73046 14.8252C8.49658 15.0991 8.14575 15.2444 7.78674 15.2162C7.46526 15.1909 7.23318 15.0058 7.12297 14.9136C6.99944 14.8101 6.85853 14.6692 6.71516 14.5258L4.32115 12.1318C4.25167 12.0623 4.21687 12.0277 4.19054 12.0037C4.18985 12.0031 4.18918 12.0025 4.18854 12.0019C4.18768 12.0018 4.18679 12.0018 4.18585 12.0018C4.15023 12.0001 4.1012 12 4.00295 12L2.67609 12C2.4868 12 2.30245 12 2.14633 11.9872C1.97489 11.9732 1.77259 11.9402 1.56902 11.8365C1.28677 11.6926 1.0573 11.4632 0.913494 11.1809C0.809771 10.9774 0.77672 10.7751 0.762713 10.6036C0.749957 10.4475 0.749979 10.2632 0.750002 10.0739L0.750004 7.94995C0.750004 7.94197 0.750003 7.93399 0.750002 7.92603C0.749979 7.73674 0.749957 7.5524 0.762713 7.39628C0.77672 7.22483 0.809771 7.02253 0.913494 6.81896C1.0573 6.53672 1.28677 6.30725 1.56902 6.16344C1.77259 6.05972 1.97489 6.02667 2.14633 6.01266C2.30245 5.9999 2.48679 5.99992 2.67608 5.99995C2.68405 5.99995 2.69202 5.99995 2.7 5.99995H4.00295C4.1012 5.99995 4.15023 5.99977 4.18585 5.99814C4.18679 5.9981 4.18768 5.99806 4.18854 5.99801C4.18918 5.99744 4.18984 5.99683 4.19053 5.9962C4.21687 5.97217 4.25167 5.93762 4.32115 5.86815L6.69541 3.49388C6.702 3.4873 6.70858 3.48071 6.71515 3.47414C6.85852 3.33072 6.99944 3.18976 7.12297 3.08634C7.23318 2.99408 7.46526 2.80905 7.78674 2.78375ZM14.373 3.14112C14.7092 2.89923 15.1779 2.97572 15.4198 3.31197C16.5715 4.913 17.25 6.87834 17.25 8.99995C17.25 11.1216 16.5715 13.0869 15.4198 14.6879C15.1779 15.0242 14.7092 15.1007 14.373 14.8588C14.0367 14.6169 13.9602 14.1482 14.2021 13.812C15.1764 12.4576 15.75 10.7969 15.75 8.99995C15.75 7.203 15.1764 5.54226 14.2021 4.18793C13.9602 3.85168 14.0367 3.38301 14.373 3.14112ZM11.3799 5.38481C11.7196 5.14784 12.1872 5.23114 12.4241 5.57088C13.1022 6.54303 13.5 7.72616 13.5 8.99995C13.5 10.2737 13.1022 11.4569 12.4241 12.429C12.1872 12.7688 11.7196 12.8521 11.3799 12.6151C11.0402 12.3781 10.9569 11.9106 11.1938 11.5709C11.7021 10.8423 12 9.95703 12 8.99995C12 8.04286 11.7021 7.15762 11.1938 6.42902C10.9569 6.08929 11.0402 5.62178 11.3799 5.38481Z" fill="#203950"/>
</g>
</svg>
